<svg width="106" height="27" viewBox="0 0 106 27" fill="none" xmlns="http://www.w3.org/2000/svg">
<mask id="mask0_1073_7770" style="mask-type:luminance" maskUnits="userSpaceOnUse" x="0" y="0" width="13" height="27">
<path d="M0 0.00195312H12.4225V26.722H0V0.00195312Z" fill="white"/>
</mask>
<g mask="url(#mask0_1073_7770)">
<path d="M26.72 13.362C26.72 9.9426 25.4156 6.52325 22.8069 3.9151C20.1987 1.30634 16.7787 0.00195312 13.36 0.00195312C9.94126 0.00195312 6.52191 1.30634 3.91315 3.9151C1.30499 6.52325 0 9.9426 0 13.362C0 16.7807 1.30499 20.2 3.91315 22.8088C6.52191 25.417 9.94126 26.722 13.36 26.722C16.7787 26.722 20.1987 25.417 22.8069 22.8088C25.4156 20.2 26.72 16.7807 26.72 13.362ZM13.36 25.8625C10.161 25.8625 6.96139 24.6424 4.52048 22.2015C2.07957 19.7606 0.859415 16.561 0.859415 13.362C0.859415 10.163 2.07957 6.96273 4.52048 4.52182C6.96139 2.08152 10.161 0.860758 13.36 0.860758C16.559 0.860758 19.7592 2.08152 22.1995 4.52182C24.6404 6.96273 25.8612 10.163 25.8612 13.362C25.8612 16.561 24.6404 19.7606 22.1995 22.2015C19.7592 24.6424 16.559 25.8625 13.36 25.8625ZM24.6459 13.1367C24.6472 13.1239 24.6533 13.1135 24.6533 13.1007C24.6533 13.0842 24.6459 13.0702 24.6441 13.0549C24.641 12.8895 24.638 12.7223 24.6288 12.5501L24.6087 12.3158C24.6087 12.2901 24.6056 12.2663 24.6014 12.2419L24.577 12.0106C24.5049 11.4661 24.4146 10.9741 24.2754 10.4419C24.2705 10.4181 24.2644 10.3937 24.2559 10.3711C24.1613 10.0293 24.0557 9.70395 23.9324 9.37068C23.7859 9.02398 23.6596 8.69865 23.4929 8.35684C22.9723 7.4077 22.567 6.73078 21.8479 5.90372L21.7771 5.82742C21.7594 5.80423 21.7405 5.78164 21.7179 5.76272C21.5965 5.62966 21.475 5.5027 21.3487 5.37269C19.3777 3.55009 17.1981 2.34398 14.4752 2.11997C14.2151 2.09434 13.9515 2.08945 13.6878 2.08152C13.6646 2.07725 13.6438 2.06809 13.6206 2.06809C13.606 2.06809 13.5938 2.0748 13.5797 2.07602C13.5065 2.0748 13.4345 2.06504 13.3606 2.06504V2.06321C13.0041 2.06321 12.6391 2.08152 12.268 2.11753C12.2424 2.11753 12.218 2.11997 12.193 2.12486C11.3628 2.21153 10.3905 2.40624 9.61044 2.70227L9.60983 2.70105C9.1734 2.8567 8.77299 3.03005 8.35488 3.23025C8.18825 3.3151 8.00453 3.40482 7.844 3.49943C7.39598 3.74969 6.96444 4.03107 6.55304 4.34237C6.1392 4.65549 5.74429 4.99914 5.37135 5.37086C5.17297 5.56923 4.97765 5.78103 4.78416 6.00626C4.59494 6.22661 4.41549 6.45184 4.24825 6.68012L4.24397 6.68562C4.17134 6.78511 4.09077 6.89864 4.00348 7.02865C3.91254 7.16232 3.83563 7.27952 3.77215 7.38084L3.76971 7.38572C3.62383 7.61889 3.48649 7.85877 3.3577 8.10475C3.23196 8.34402 3.11172 8.59488 2.99819 8.85552L2.89076 9.11005L2.787 9.37739C2.74183 9.49886 2.69605 9.62521 2.65271 9.75461C2.60815 9.88828 2.56665 10.0189 2.52881 10.1459C2.51538 10.1941 2.4696 10.3735 2.45373 10.4083C2.40612 10.5847 2.36278 10.7617 2.32433 10.9381C2.28648 11.109 2.25169 11.2879 2.22117 11.4722L2.21995 11.4808C2.19004 11.6608 2.16441 11.8366 2.14366 12.0075C2.12229 12.1845 2.1052 12.3652 2.09238 12.5483C2.08384 12.7333 2.0698 12.9133 2.06675 13.0995H2.06553C2.07102 13.2643 2.07224 13.4236 2.07407 13.5847C2.07285 13.5976 2.06675 13.6079 2.06675 13.6208C2.06675 13.6372 2.07407 13.6513 2.07651 13.6665C2.07895 13.8319 2.08262 13.9992 2.09238 14.1713L2.11253 14.4057C2.11253 14.4313 2.11497 14.4551 2.11985 14.4796L2.14366 14.7109C2.21568 15.2535 2.30541 15.7498 2.4464 16.2802C2.45129 16.304 2.45678 16.3278 2.46594 16.3504C2.56054 16.6922 2.66614 17.0175 2.78883 17.3508C2.93532 17.6975 3.06228 18.0228 3.2283 18.3646C3.74957 19.3138 4.15425 19.9907 4.87389 20.8177L4.94408 20.894C4.96117 20.9172 4.9807 20.9398 5.00268 20.9587L5.16992 21.1394L5.37196 21.3482C6.57135 22.4566 7.55895 23.1933 9.07574 23.8135L9.07513 23.8147C10.0951 24.2304 11.1358 24.4861 12.2302 24.5991C12.5207 24.6277 12.8052 24.6424 13.0866 24.6497C13.0908 24.6497 13.0957 24.6522 13.1006 24.6522C13.1043 24.6522 13.1079 24.6503 13.111 24.6503C13.194 24.6522 13.2782 24.657 13.36 24.657C13.7177 24.657 14.0833 24.6387 14.4562 24.6027C14.4807 24.6027 14.5039 24.6003 14.527 24.596C15.9028 24.4532 17.1212 24.0876 18.3663 23.4906C18.5318 23.4064 18.7167 23.316 18.8772 23.2214C19.3246 22.9712 19.7568 22.6898 20.1682 22.3785C20.5826 22.0654 20.9775 21.7223 21.3499 21.3494C21.5483 21.151 21.7442 20.9398 21.9371 20.7146C22.1269 20.4942 22.3057 20.269 22.4736 20.0401L22.4779 20.0352C22.5505 19.9357 22.6305 19.8222 22.7183 19.6922C22.8093 19.5585 22.8856 19.4413 22.9491 19.3394L22.9521 19.3351C23.0974 19.102 23.2353 18.8621 23.3641 18.6161C23.4899 18.3768 23.6101 18.126 23.7236 17.8653L23.8311 17.6108L23.9348 17.3435C23.98 17.222 24.0252 17.0956 24.0691 16.9662C24.1137 16.8326 24.1552 16.702 24.193 16.575C24.2065 16.5268 24.2516 16.3473 24.2681 16.3125C24.3151 16.1361 24.3591 15.9591 24.3975 15.7827C24.4347 15.6118 24.4695 15.433 24.5007 15.2486L24.5019 15.2401C24.5318 15.06 24.5574 14.8842 24.5782 14.7133C24.5995 14.5363 24.6166 14.3557 24.6294 14.1725C24.638 13.9876 24.652 13.8075 24.6545 13.6214H24.6563C24.6502 13.4572 24.6478 13.2979 24.6459 13.1367ZM23.7902 13.8301C23.7883 13.8472 23.7871 13.8649 23.7877 13.8826L23.7719 14.1353C23.7603 14.2922 23.7444 14.4521 23.7249 14.6138C23.7053 14.7738 23.6834 14.93 23.6583 15.0808L23.6486 15.1375C23.6229 15.2877 23.5924 15.4433 23.557 15.602C23.5222 15.7589 23.485 15.9164 23.4435 16.0696C23.4209 16.1581 23.3971 16.2472 23.3696 16.3345C23.333 16.4584 23.2945 16.5793 23.2555 16.6959C23.2195 16.8027 23.1804 16.9119 23.1389 17.0236C23.1297 17.0432 23.1224 17.0639 23.1163 17.0847L23.0345 17.2897L22.9491 17.4954C22.9381 17.5168 22.9283 17.5388 22.921 17.5614C22.827 17.7756 22.7214 17.9947 22.6048 18.2169C22.4907 18.4336 22.3668 18.6497 22.2337 18.8639L22.2056 18.9097C22.1324 19.0263 22.0671 19.1276 22.0097 19.2124C21.9499 19.3003 21.8797 19.3998 21.7985 19.5109L21.7643 19.5573C21.6117 19.763 21.453 19.9638 21.2858 20.1573C21.121 20.3496 20.9391 20.5449 20.7419 20.7421C20.3934 21.0906 20.0284 21.408 19.6506 21.6936C19.2654 21.9854 18.8662 22.246 18.4597 22.4737C18.2998 22.5561 18.1484 22.641 17.9867 22.7221C16.8117 23.2849 15.7051 23.6121 14.4062 23.7476C14.1218 23.7763 13.8257 23.786 13.5279 23.7903V21.2627C13.5279 21.0265 13.3362 20.8354 13.1006 20.8354C12.8644 20.8354 12.6727 21.0271 12.6727 21.2627V23.7653C12.5543 23.7579 12.4304 23.7592 12.3138 23.7476C11.2841 23.6334 10.3624 23.4131 9.3968 23.0206L9.39619 23.0218C7.42955 22.1862 5.8566 20.9203 4.65903 19.1313C4.64866 19.1123 4.63645 19.0946 4.62363 19.0769C4.34896 18.6558 4.11396 18.2328 3.89911 17.7781C3.89178 17.7591 3.88324 17.7414 3.87347 17.7237C3.5988 17.1201 3.38578 16.5127 3.22586 15.87C3.22281 15.8505 3.21792 15.8322 3.21182 15.8132C3.13857 15.4879 3.07937 15.1858 3.02871 14.8562L2.99697 14.6102L2.96889 14.3605L2.94875 14.1097C2.94753 14.0883 2.94753 14.0688 2.94631 14.0468H5.45863C5.69424 14.0468 5.8859 13.8551 5.8859 13.6195C5.8859 13.3833 5.69424 13.1923 5.45863 13.1923H2.92311C2.92372 13.1605 2.92311 13.13 2.92555 13.0983H2.92372L2.93105 12.8914C2.93349 12.8743 2.93471 12.8559 2.9341 12.8382L2.94997 12.5856C2.96156 12.4287 2.97743 12.2688 2.99697 12.107C3.01589 11.9471 3.03847 11.7908 3.0635 11.6395L3.07265 11.5827C3.0989 11.4325 3.12881 11.2769 3.16421 11.117C3.199 10.9601 3.23685 10.8039 3.27774 10.6494C3.30094 10.5615 3.32474 10.4718 3.35221 10.3851C3.38883 10.2606 3.42728 10.1398 3.46635 10.0238C3.50236 9.91697 3.54143 9.8071 3.58293 9.69601C3.59209 9.67648 3.59941 9.65573 3.60552 9.63436L3.6867 9.42927L3.77215 9.22358C3.78375 9.20221 3.7929 9.17963 3.80023 9.15643C3.89484 8.94219 4.00043 8.72306 4.11701 8.5015C4.23055 8.28481 4.35506 8.06874 4.48751 7.85388L4.51559 7.80872C4.58945 7.69152 4.65476 7.5902 4.71213 7.50536C4.77195 7.41807 4.84154 7.31858 4.92333 7.20749L4.95751 7.16049C5.10949 6.95479 5.2688 6.75459 5.43544 6.5611C5.60085 6.36822 5.78213 6.17351 5.97928 5.97635C6.32842 5.62783 6.69343 5.31043 7.07064 5.02416C7.4564 4.7324 7.85498 4.47177 8.26211 4.2441C8.42141 4.1623 8.5734 4.07746 8.73515 3.99567C9.90098 3.43717 11.0155 3.10574 12.3022 2.97145L12.3132 2.97023C12.5989 2.94154 12.8955 2.93239 13.194 2.92751V5.45448C13.194 5.69131 13.3856 5.88236 13.6212 5.88236C13.8568 5.88236 14.0491 5.6907 14.0491 5.45448V2.95192C14.1633 2.95924 14.2768 2.9568 14.3909 2.9684C17.6113 3.38407 20.2286 4.84654 22.0628 7.58593C22.0732 7.60485 22.0848 7.62316 22.0982 7.64025C22.3729 8.06202 22.6079 8.48441 22.8221 8.93975C22.8294 8.95806 22.8386 8.97637 22.8484 8.99346C23.1432 9.64169 23.33 10.2228 23.5106 10.904C23.5839 11.2287 23.6425 11.532 23.6937 11.8616L23.7255 12.107L23.7536 12.3573L23.7737 12.6075C23.7749 12.6289 23.7749 12.649 23.7761 12.6698H21.2638C21.0276 12.6698 20.8365 12.8614 20.8365 13.097C20.8365 13.3339 21.0282 13.5249 21.2638 13.5249H23.7987C23.7981 13.5561 23.7987 13.5866 23.7969 13.6183H23.7981L23.7902 13.8301ZM18.7374 7.42601L10.8959 10.6513C10.841 10.6714 10.7897 10.7031 10.7457 10.7471C10.7018 10.791 10.6707 10.8429 10.6493 10.8972L7.42405 18.7394C7.38316 18.8401 7.3795 18.9561 7.42405 19.0647C7.51378 19.2826 7.76404 19.387 7.98255 19.2973L15.8253 16.072C15.879 16.0513 15.9309 16.0195 15.9749 15.9762C16.0188 15.9329 16.0493 15.8816 16.0701 15.8267L19.2959 7.9845C19.3375 7.88318 19.3405 7.76721 19.2959 7.65917C19.2056 7.44066 18.956 7.33628 18.7374 7.42601ZM11.2005 11.8091L11.8487 12.4574C11.6821 12.7357 11.5923 13.0476 11.5923 13.362C11.5923 13.8142 11.7657 14.2659 12.1106 14.6108C12.4548 14.9557 12.9077 15.1284 13.3594 15.1284C13.6737 15.1284 13.9856 15.0399 14.264 14.8726L14.9128 15.5215L8.60575 18.115L11.2005 11.8091ZM13.36 12.4531C13.5926 12.4531 13.8251 12.5422 14.0021 12.7192C14.1791 12.8962 14.2682 13.1288 14.2682 13.3613C14.2682 13.5933 14.1791 13.8258 14.0021 14.0029C13.8251 14.1799 13.5919 14.269 13.36 14.269C13.1274 14.269 12.8955 14.1799 12.7185 14.0029C12.5415 13.8258 12.4524 13.5927 12.4524 13.3613C12.4524 13.1288 12.5415 12.8962 12.7185 12.7192C12.8955 12.5422 13.1274 12.4531 13.36 12.4531ZM15.5195 14.9142L14.8713 14.2653C15.0373 13.987 15.1271 13.6751 15.1271 13.3613C15.1271 12.9091 14.9537 12.4568 14.6094 12.1119C14.2646 11.767 13.8117 11.5943 13.36 11.5943C13.0463 11.5943 12.7344 11.6828 12.4554 11.85L11.8078 11.2018L18.1143 8.60831L15.5195 14.9142Z" fill="black"/>
</g>
<mask id="mask1_1073_7770" style="mask-type:luminance" maskUnits="userSpaceOnUse" x="14" y="0" width="13" height="27">
<path d="M14.376 0.00195312H26.7099V26.722H14.376V0.00195312Z" fill="white"/>
</mask>
<g mask="url(#mask1_1073_7770)">
<path d="M26.7097 13.362C26.7097 9.9426 25.4048 6.52325 22.7966 3.9151C20.1878 1.30634 16.7685 0.00195312 13.3497 0.00195312C9.9304 0.00195312 6.51105 1.30634 3.90289 3.9151C1.29413 6.52325 -0.0102539 9.9426 -0.0102539 13.362C-0.0102539 16.7807 1.29413 20.2 3.90289 22.8088C6.51105 25.417 9.9304 26.722 13.3497 26.722C16.7685 26.722 20.1878 25.417 22.7966 22.8088C25.4048 20.2 26.7097 16.7807 26.7097 13.362ZM13.3497 25.8625C10.1507 25.8625 6.95052 24.6424 4.50961 22.2015C2.0687 19.7606 0.848551 16.561 0.848551 13.362C0.848551 10.163 2.0687 6.96273 4.50961 4.52182C6.95052 2.08152 10.1507 0.860758 13.3497 0.860758C16.5487 0.860758 19.7484 2.08152 22.1893 4.52182C24.6302 6.96273 25.8503 10.163 25.8503 13.362C25.8503 16.561 24.6302 19.7606 22.1893 22.2015C19.7484 24.6424 16.5487 25.8625 13.3497 25.8625ZM24.6351 13.1367C24.6369 13.1239 24.643 13.1135 24.643 13.1007C24.643 13.0842 24.6351 13.0702 24.6332 13.0549C24.6308 12.8895 24.6271 12.7223 24.618 12.5501L24.5978 12.3158C24.5978 12.2901 24.5954 12.2663 24.5905 12.2419L24.5667 12.0106C24.4947 11.4661 24.4043 10.9741 24.2646 10.4419C24.2597 10.4181 24.2542 10.3937 24.245 10.3711C24.1504 10.0293 24.0448 9.70395 23.9221 9.37068C23.775 9.02398 23.6487 8.69865 23.4827 8.35684C22.9614 7.4077 22.5567 6.73078 21.8371 5.90372L21.7663 5.82742C21.7492 5.80423 21.7297 5.78164 21.7077 5.76272C21.5862 5.62966 21.4641 5.5027 21.3384 5.37269C19.3669 3.55009 17.1872 2.34398 14.4643 2.11997C14.2043 2.09434 13.9406 2.08945 13.6769 2.08152C13.6543 2.07725 13.6336 2.06809 13.6098 2.06809C13.5951 2.06809 13.5835 2.0748 13.5695 2.07602C13.4956 2.0748 13.4236 2.06504 13.3504 2.06504V2.06321C12.9933 2.06321 12.6289 2.08152 12.2572 2.11753C12.2321 2.11753 12.2071 2.11997 12.1827 2.12486C11.352 2.21153 10.3796 2.40624 9.60018 2.70227L9.59957 2.70105C9.16254 2.8567 8.76213 3.03005 8.34402 3.23025C8.178 3.3151 7.99427 3.40482 7.83313 3.49943C7.38572 3.74969 6.95418 4.03107 6.54279 4.34237C6.12834 4.65549 5.73342 4.99914 5.36109 5.37086C5.16272 5.56923 4.96679 5.78103 4.77391 6.00626C4.58408 6.22661 4.40524 6.45184 4.23738 6.68012L4.23311 6.68562C4.16047 6.78511 4.08051 6.89864 3.99262 7.02865C3.90228 7.16232 3.82537 7.27952 3.7619 7.38084L3.75884 7.38572C3.61357 7.61889 3.47563 7.85877 3.34684 8.10475C3.2211 8.34402 3.10085 8.59488 2.98732 8.85552L2.8799 9.11005L2.77613 9.37739C2.73096 9.49886 2.6858 9.62521 2.64185 9.75461C2.59729 9.88828 2.55578 10.0189 2.51794 10.1459C2.50451 10.1941 2.45934 10.3735 2.44286 10.4083C2.39586 10.5847 2.35192 10.7617 2.31346 10.9381C2.27623 11.109 2.24144 11.2879 2.21031 11.4722L2.20909 11.4808C2.17918 11.6608 2.15354 11.8366 2.1334 12.0075C2.11204 12.1845 2.09434 12.3652 2.08152 12.5483C2.07297 12.7333 2.05893 12.9133 2.05649 13.0995H2.05466C2.06016 13.2643 2.06138 13.4236 2.06382 13.5847C2.0626 13.5976 2.05649 13.6079 2.05649 13.6208C2.05649 13.6372 2.06382 13.6513 2.06565 13.6665C2.06809 13.8319 2.07175 13.9992 2.08152 14.1713L2.10166 14.4057C2.10166 14.4313 2.1041 14.4551 2.10899 14.4796L2.1334 14.7109C2.20543 15.2535 2.29454 15.7498 2.43554 16.2802C2.44042 16.304 2.44653 16.3278 2.45507 16.3504C2.54968 16.6922 2.65528 17.0175 2.77857 17.3508C2.92445 17.6975 3.05141 18.0228 3.21805 18.3646C3.7387 19.3138 4.14399 19.9907 4.86302 20.8177L4.93321 20.894C4.95092 20.9172 4.96984 20.9398 4.99242 20.9587L5.15906 21.1394L5.3617 21.3482C6.56049 22.4566 7.54869 23.1933 9.06488 23.8135L9.06427 23.8147C10.0842 24.2304 11.1249 24.4861 12.2193 24.5991C12.5099 24.6277 12.7943 24.6424 13.0757 24.6497C13.0806 24.6497 13.0848 24.6522 13.0897 24.6522C13.0934 24.6522 13.097 24.6503 13.1001 24.6503C13.1831 24.6522 13.2673 24.657 13.3497 24.657C13.7068 24.657 14.073 24.6387 14.446 24.6027C14.4698 24.6027 14.493 24.6003 14.5168 24.596C15.892 24.4532 17.1103 24.0876 18.3555 23.4906C18.5209 23.4064 18.7064 23.316 18.8664 23.2214C19.3138 22.9712 19.7465 22.6898 20.1579 22.3785C20.5718 22.0654 20.9667 21.7223 21.3396 21.3494C21.538 21.151 21.7333 20.9398 21.9268 20.7146C22.116 20.4942 22.2955 20.269 22.4627 20.0401L22.467 20.0352C22.5396 19.9357 22.6202 19.8222 22.7075 19.6922C22.7984 19.5585 22.8753 19.4413 22.9388 19.3394L22.9413 19.3351C23.0871 19.102 23.2245 18.8621 23.3533 18.6161C23.479 18.3768 23.5993 18.126 23.7128 17.8653L23.8202 17.6108L23.924 17.3435C23.9691 17.222 24.0149 17.0956 24.0583 16.9662C24.1028 16.8326 24.1443 16.702 24.1822 16.575C24.1956 16.5268 24.2414 16.3473 24.2572 16.3125C24.3048 16.1361 24.3482 15.9591 24.3866 15.7827C24.4245 15.6118 24.4593 15.433 24.4898 15.2486L24.491 15.2401C24.5209 15.06 24.5466 14.8842 24.5673 14.7133C24.5887 14.5363 24.6058 14.3557 24.6186 14.1725C24.6271 13.9876 24.6412 13.8075 24.6442 13.6214H24.6454C24.6393 13.4572 24.6375 13.2979 24.6351 13.1367ZM23.7799 13.8301C23.7775 13.8472 23.7763 13.8649 23.7769 13.8826L23.761 14.1353C23.7494 14.2922 23.7335 14.4521 23.714 14.6138C23.6951 14.7738 23.6725 14.93 23.6475 15.0808L23.6383 15.1375C23.6121 15.2877 23.5822 15.4433 23.5468 15.602C23.512 15.7589 23.4741 15.9164 23.4332 16.0696C23.41 16.1581 23.3862 16.2472 23.3588 16.3345C23.3221 16.4584 23.2843 16.5793 23.2446 16.6959C23.2086 16.8027 23.1695 16.9119 23.1286 17.0236C23.1189 17.0432 23.1116 17.0639 23.1055 17.0847L23.0243 17.2897L22.9388 17.4954C22.9272 17.5168 22.9181 17.5388 22.9107 17.5614C22.8161 17.7756 22.7111 17.9947 22.594 18.2169C22.4798 18.4336 22.3559 18.6497 22.2235 18.8639L22.1954 18.9097C22.1215 19.0263 22.0562 19.1276 21.9988 19.2124C21.939 19.3003 21.8694 19.3998 21.7876 19.5109L21.7535 19.5573C21.6015 19.763 21.4422 19.9638 21.2755 20.1573C21.1101 20.3496 20.9288 20.5449 20.7317 20.7421C20.3832 21.0906 20.0175 21.408 19.6403 21.6936C19.2546 21.9854 18.856 22.246 18.4489 22.4737C18.2896 22.5561 18.1376 22.641 17.9758 22.7221C16.8008 23.2849 15.6942 23.6121 14.3953 23.7476C14.1109 23.7763 13.8149 23.786 13.517 23.7903V21.2627C13.517 21.0265 13.3253 20.8354 13.0897 20.8354C12.8541 20.8354 12.6618 21.0271 12.6618 21.2627V23.7653C12.544 23.7579 12.4195 23.7592 12.3036 23.7476C11.2732 23.6334 10.3516 23.4131 9.38655 23.0206L9.38533 23.0218C7.41929 22.1862 5.84573 20.9203 4.64817 19.1313C4.6384 19.1123 4.62619 19.0946 4.61277 19.0769C4.33809 18.6558 4.1031 18.2328 3.88885 17.7781C3.88153 17.7591 3.87237 17.7414 3.86261 17.7237C3.58794 17.1201 3.37491 16.5127 3.21499 15.87C3.21194 15.8505 3.20706 15.8322 3.20096 15.8132C3.12771 15.4879 3.06911 15.1858 3.01845 14.8562L2.9861 14.6102L2.95802 14.3605L2.93788 14.1097C2.93666 14.0883 2.93666 14.0688 2.93544 14.0468H5.44777C5.68337 14.0468 5.87503 13.8551 5.87503 13.6195C5.87503 13.3833 5.68337 13.1923 5.44777 13.1923H2.91286C2.91347 13.1605 2.91286 13.13 2.91469 13.0983H2.91347L2.92079 12.8914C2.92262 12.8743 2.92384 12.8559 2.92323 12.8382L2.9391 12.5856C2.9507 12.4287 2.96657 12.2688 2.9861 12.107C3.00563 11.9471 3.02761 11.7908 3.05324 11.6395L3.0624 11.5827C3.08865 11.4325 3.11855 11.2769 3.15396 11.117C3.18875 10.9601 3.22598 10.8039 3.26749 10.6494C3.29007 10.5615 3.31388 10.4718 3.34134 10.3851C3.37797 10.2606 3.41642 10.1398 3.45548 10.0238C3.49211 9.91697 3.53056 9.8071 3.57207 9.69601C3.58122 9.67648 3.58855 9.65573 3.59465 9.63436L3.67644 9.42927L3.7619 9.22358C3.77288 9.20221 3.78265 9.17963 3.78997 9.15643C3.88397 8.94219 3.98957 8.72306 4.10615 8.5015C4.21968 8.28481 4.3442 8.06874 4.47726 7.85388L4.50534 7.80872C4.57858 7.69152 4.64389 7.5902 4.70188 7.50536C4.76109 7.41807 4.83128 7.31858 4.91246 7.20749L4.94664 7.16049C5.09924 6.95479 5.25794 6.75459 5.42518 6.5611C5.58998 6.36822 5.77188 6.17351 5.96903 5.97635C6.31756 5.62783 6.68256 5.31043 7.06039 5.02416C7.44554 4.7324 7.84473 4.47177 8.25124 4.2441C8.41116 4.1623 8.56254 4.07746 8.72429 3.99567C9.89072 3.43717 11.0047 3.10574 12.2913 2.97145L12.3029 2.97023C12.588 2.94154 12.8846 2.93239 13.1831 2.92751V5.45448C13.1831 5.69131 13.3748 5.88236 13.611 5.88236C13.8466 5.88236 14.0383 5.6907 14.0383 5.45448V2.95192C14.1524 2.95924 14.2659 2.9568 14.3801 2.9684C17.6004 3.38407 20.2177 4.84654 22.0519 7.58593C22.0623 7.60485 22.0745 7.62316 22.0873 7.64025C22.362 8.06202 22.597 8.48441 22.8119 8.93975C22.8192 8.95806 22.8277 8.97637 22.8375 8.99346C23.1323 9.64169 23.3197 10.2228 23.4998 10.904C23.573 11.2287 23.6322 11.532 23.6829 11.8616L23.7146 12.107L23.7427 12.3573L23.7628 12.6075C23.7641 12.6289 23.7641 12.649 23.7659 12.6698H21.2536C21.0167 12.6698 20.8257 12.8614 20.8257 13.097C20.8257 13.3339 21.0173 13.5249 21.2536 13.5249H23.7885C23.7879 13.5561 23.7885 13.5866 23.7866 13.6183H23.7879L23.7799 13.8301ZM18.7272 7.42601L10.885 10.6513C10.8307 10.6714 10.7788 10.7031 10.7349 10.7471C10.6909 10.791 10.6604 10.8429 10.639 10.8972L7.4138 18.7394C7.37229 18.8401 7.36863 18.9561 7.4138 19.0647C7.50292 19.2826 7.75378 19.387 7.9723 19.2973L15.8145 16.072C15.8688 16.0513 15.9201 16.0195 15.964 15.9762C16.008 15.9329 16.0391 15.8816 16.0598 15.8267L19.2851 7.9845C19.3266 7.88318 19.3303 7.76721 19.2851 7.65917C19.1954 7.44066 18.9451 7.33628 18.7272 7.42601ZM11.1896 11.8091L11.8378 12.4574C11.6712 12.7357 11.5821 13.0476 11.5821 13.362C11.5821 13.8142 11.7548 14.2659 12.0997 14.6108C12.4446 14.9557 12.8975 15.1284 13.3491 15.1284C13.6629 15.1284 13.9748 15.0399 14.2531 14.8726L14.9019 15.5215L8.5955 18.115L11.1896 11.8091ZM13.3497 12.4531C13.5817 12.4531 13.8142 12.5422 13.9913 12.7192C14.1683 12.8962 14.2574 13.1288 14.2574 13.3613C14.2574 13.5933 14.1683 13.8258 13.9913 14.0029C13.8142 14.1799 13.5811 14.269 13.3497 14.269C13.1172 14.269 12.8846 14.1799 12.7076 14.0029C12.5306 13.8258 12.4415 13.5927 12.4415 13.3613C12.4415 13.1288 12.5306 12.8962 12.7076 12.7192C12.8846 12.5422 13.1172 12.4531 13.3497 12.4531ZM15.5093 14.9142L14.8604 14.2653C15.0271 13.987 15.1162 13.6751 15.1162 13.3613C15.1162 12.9091 14.9434 12.4568 14.5986 12.1119C14.2537 11.767 13.8008 11.5943 13.3497 11.5943C13.0354 11.5943 12.7235 11.6828 12.4452 11.85L11.7969 11.2018L18.1034 8.60831L15.5093 14.9142Z" fill="black"/>
</g>
<mask id="mask2_1073_7770" style="mask-type:luminance" maskUnits="userSpaceOnUse" x="13" y="6" width="7" height="15">
<path d="M13.4688 6.73047H19.68V20.2077H13.4688V6.73047Z" fill="white"/>
</mask>
<g mask="url(#mask2_1073_7770)">
<path d="M26.7406 13.3698C26.7406 9.94859 25.435 6.52618 22.8244 3.91559C20.2144 1.3056 16.792 0 13.3709 0C9.94907 0 6.52728 1.3056 3.91669 3.91559C1.30609 6.52618 0.000488281 9.94859 0.000488281 13.3698C0.000488281 16.7909 1.30609 20.2133 3.91669 22.8239C6.52728 25.4345 9.94907 26.7401 13.3709 26.7401C16.792 26.7401 20.2144 25.4345 22.8244 22.8239C25.435 20.2133 26.7406 16.7909 26.7406 13.3698ZM13.3709 25.8801C10.1694 25.8801 6.96737 24.6587 4.52463 22.216C2.08188 19.7733 0.860514 16.5712 0.860514 13.3698C0.860514 10.1683 2.08188 6.96627 4.52463 4.52353C6.96737 2.08079 10.1694 0.859415 13.3709 0.859415C16.5723 0.859415 19.7744 2.08079 22.2171 4.52353C24.6598 6.96627 25.8812 10.1683 25.8812 13.3698C25.8812 16.5712 24.6598 19.7733 22.2171 22.216C19.7744 24.6587 16.5723 25.8801 13.3709 25.8801ZM24.6653 13.1445C24.6666 13.1317 24.6727 13.1213 24.6727 13.1085C24.6727 13.0927 24.6653 13.0786 24.6629 13.0627C24.6605 12.8973 24.6568 12.7301 24.6476 12.5574L24.6275 12.323C24.6275 12.2973 24.6251 12.2735 24.6202 12.2497L24.5964 12.0172C24.5237 11.4727 24.434 10.9807 24.2942 10.4479C24.2893 10.4235 24.2832 10.3997 24.2747 10.3771C24.1795 10.0346 24.0739 9.70932 23.9512 9.37544C23.8041 9.02874 23.6777 8.7028 23.5111 8.3616C22.9898 7.41124 22.5846 6.73371 21.8649 5.90604L21.7941 5.82974C21.7764 5.80655 21.7569 5.78457 21.7349 5.76504C21.6134 5.63198 21.492 5.50502 21.3656 5.3744C19.3929 3.55058 17.2114 2.34325 14.4866 2.11985C14.2266 2.09421 13.9623 2.08872 13.698 2.08079C13.6754 2.07651 13.6547 2.06736 13.6315 2.06736C13.6168 2.06736 13.6046 2.07407 13.5906 2.07529C13.5174 2.07407 13.4447 2.06492 13.3715 2.06492V2.06247C13.0144 2.06247 12.6494 2.08079 12.2777 2.1168C12.252 2.1168 12.2276 2.11985 12.2026 2.12412C11.3719 2.21141 10.3983 2.40612 9.61825 2.70276L9.61764 2.70093C9.18061 2.85719 8.7802 3.02993 8.36148 3.23074C8.19545 3.31558 8.01112 3.40531 7.84998 3.49992C7.40257 3.75079 6.97042 4.03217 6.55841 4.34347C6.14396 4.6572 5.74905 5.00084 5.37611 5.37318C5.17773 5.57155 4.9818 5.78396 4.78831 6.00919C4.59848 6.22954 4.41964 6.45477 4.25179 6.68366L4.24751 6.68855C4.17488 6.78865 4.09431 6.90218 4.00702 7.03158C3.91608 7.16525 3.83917 7.28306 3.77569 7.38499L3.77325 7.38926C3.62737 7.62243 3.48942 7.86292 3.36063 8.1089C3.23489 8.34817 3.11465 8.59965 3.00112 8.86028L2.89308 9.11481L2.78993 9.38215C2.74415 9.50362 2.69898 9.62997 2.65503 9.75998C2.61047 9.89365 2.56897 10.0249 2.53112 10.1518C2.5177 10.2001 2.47192 10.3795 2.45605 10.4143C2.40844 10.5907 2.3651 10.7683 2.32665 10.9447C2.2888 11.1156 2.25401 11.2939 2.22349 11.4788L2.22227 11.4874C2.19175 11.668 2.16673 11.8438 2.14597 12.0147C2.12461 12.1917 2.10691 12.3724 2.0947 12.5555C2.08555 12.7411 2.07151 12.9211 2.06907 13.1073H2.06785C2.07273 13.2721 2.07456 13.432 2.07639 13.5932C2.07517 13.606 2.06907 13.6164 2.06907 13.6292C2.06907 13.645 2.07639 13.6591 2.07822 13.675C2.08127 13.8404 2.08433 14.0076 2.0947 14.1804L2.11423 14.4147C2.11423 14.4404 2.11729 14.4642 2.12156 14.488L2.14597 14.7199C2.218 15.2632 2.30773 15.76 2.44872 16.2904C2.45361 16.3149 2.4591 16.338 2.46826 16.3606C2.56286 16.7031 2.66846 17.0284 2.79176 17.3623C2.93825 17.709 3.06521 18.0349 3.23123 18.3761C3.75311 19.3265 4.15779 20.004 4.87804 20.8317L4.94823 20.908C4.96532 20.9312 4.98485 20.9531 5.00683 20.9727L5.17407 21.1533L5.37672 21.3627C6.57672 22.4718 7.56554 23.2091 9.08294 23.8292L9.08233 23.8305C10.1029 24.2461 11.1448 24.5025 12.2398 24.6154C12.5304 24.6441 12.8154 24.6587 13.0968 24.6661C13.1011 24.6661 13.106 24.6691 13.1108 24.6691C13.1145 24.6691 13.1182 24.6667 13.1212 24.6667C13.2042 24.6691 13.2885 24.6734 13.3709 24.6734C13.7285 24.6734 14.0948 24.6557 14.4677 24.6197C14.4915 24.6197 14.5153 24.6166 14.5385 24.613C15.9149 24.4695 17.1345 24.1039 18.3803 23.5063C18.5463 23.4221 18.7312 23.3318 18.8918 23.2372C19.3398 22.9863 19.7725 22.7049 20.1839 22.393C20.5984 22.0799 20.9939 21.7369 21.3668 21.3639C21.5652 21.1655 21.7612 20.9531 21.954 20.7279C22.1439 20.5076 22.3233 20.2823 22.4912 20.0534L22.4948 20.0479C22.5681 19.9484 22.648 19.8349 22.7359 19.7055C22.8269 19.5718 22.9038 19.454 22.9673 19.3521L22.9697 19.3478C23.1156 19.1141 23.2529 18.8742 23.3823 18.6282C23.5081 18.3889 23.6283 18.1374 23.7418 17.8768L23.8493 17.6223L23.953 17.3549C23.9988 17.2329 24.044 17.1065 24.0873 16.9771C24.1325 16.8434 24.174 16.7122 24.2118 16.5852C24.2253 16.537 24.2704 16.3576 24.2869 16.3228C24.3339 16.1464 24.3778 15.9688 24.4163 15.7924C24.4535 15.6215 24.4883 15.4426 24.5195 15.2583L24.5207 15.2497C24.5506 15.0691 24.5762 14.8933 24.597 14.7224C24.6183 14.5454 24.6354 14.3647 24.6482 14.1816C24.6568 13.996 24.6708 13.816 24.6739 13.6298H24.6751C24.669 13.4656 24.6672 13.3057 24.6653 13.1445ZM23.809 13.8385C23.8065 13.8556 23.8053 13.8733 23.8059 13.891L23.7901 14.1437C23.7785 14.3012 23.7626 14.4611 23.7431 14.6229C23.7241 14.7828 23.7015 14.9397 23.6765 15.0898L23.6668 15.1466C23.6411 15.2973 23.6106 15.453 23.5752 15.6123C23.5404 15.7692 23.5032 15.926 23.4617 16.0799C23.4391 16.1684 23.4153 16.2581 23.3878 16.3448C23.3506 16.4693 23.3127 16.5901 23.2731 16.7061C23.237 16.8135 23.1986 16.9228 23.1571 17.0345C23.1473 17.054 23.14 17.0748 23.1345 17.0955L23.0527 17.3006L22.9673 17.5063C22.9557 17.5277 22.9465 17.5503 22.9392 17.5728C22.8446 17.7871 22.739 18.0068 22.6224 18.2284C22.5076 18.4457 22.3843 18.6618 22.2513 18.8766L22.2232 18.9218C22.1494 19.039 22.084 19.1403 22.0267 19.2251C21.9668 19.313 21.8967 19.4125 21.8155 19.5236L21.7813 19.57C21.6287 19.7763 21.4694 19.9765 21.3028 20.1706C21.1373 20.3629 20.9554 20.5582 20.7583 20.7554C20.4092 21.1045 20.0435 21.4219 19.6657 21.7082C19.2806 21.9999 18.8814 22.2612 18.4743 22.4888C18.3143 22.5712 18.1623 22.6561 18.0006 22.7379C16.825 23.3007 15.7172 23.6278 14.4177 23.7639C14.1326 23.7926 13.8366 23.8018 13.5387 23.8067V21.2766C13.5387 21.0404 13.3464 20.8494 13.1108 20.8494C12.8746 20.8494 12.683 21.041 12.683 21.2766V23.781C12.5646 23.7737 12.44 23.7749 12.3241 23.7639C11.2931 23.6492 10.3702 23.4288 9.40462 23.0357L9.40401 23.037C7.43553 22.2007 5.86136 20.9342 4.66257 19.144C4.65281 19.125 4.6406 19.1067 4.62717 19.0896C4.3525 18.6679 4.1175 18.2449 3.90265 17.7895C3.89532 17.7706 3.88678 17.7523 3.8764 17.7352C3.60173 17.1309 3.38871 16.523 3.22879 15.8803C3.22574 15.8607 3.22085 15.8418 3.21475 15.8235C3.1415 15.4976 3.0823 15.1954 3.03164 14.8652L2.99929 14.6192L2.97121 14.369L2.95168 14.1187C2.94985 14.0973 2.94985 14.0772 2.94862 14.0558H5.46278C5.699 14.0558 5.89066 13.8642 5.89066 13.628C5.89066 13.3911 5.699 13.2001 5.46278 13.2001H2.92604C2.92665 13.1683 2.92604 13.1378 2.92787 13.1067H2.92665L2.93398 12.8992C2.93581 12.8821 2.93764 12.8638 2.93642 12.8455L2.9529 12.5928C2.96388 12.4359 2.98036 12.276 2.99929 12.1142C3.01882 11.9537 3.04079 11.7974 3.06643 11.6467L3.07558 11.5899C3.10183 11.4391 3.13174 11.2835 3.16714 11.1236C3.20193 10.9667 3.23978 10.8104 3.28128 10.656C3.30387 10.5675 3.32767 10.4778 3.35514 10.3911C3.39176 10.2666 3.43021 10.1457 3.46928 10.0292C3.5059 9.92234 3.54436 9.81247 3.58586 9.70138C3.59502 9.68185 3.60234 9.6611 3.60845 9.63973L3.69024 9.43465L3.77569 9.22834C3.78729 9.20697 3.79644 9.18439 3.80377 9.16181C3.89777 8.94695 4.00336 8.72783 4.12055 8.50565C4.23409 8.28896 4.3586 8.07289 4.49167 7.85803L4.51974 7.81287C4.59299 7.69567 4.65891 7.59374 4.71629 7.5089C4.77549 7.42161 4.84569 7.32212 4.92748 7.21103L4.96166 7.16403C5.11425 6.95833 5.27295 6.75752 5.4402 6.56403C5.60561 6.37115 5.7875 6.17583 5.98466 5.97867C6.33318 5.63015 6.6988 5.31214 7.07663 5.02648C7.46239 4.73411 7.86157 4.47348 8.2687 4.24519C8.42862 4.1634 8.57999 4.07856 8.74174 3.99677C9.9094 3.43766 11.0246 3.10622 12.3119 2.97194L12.3235 2.97072C12.6085 2.94203 12.9051 2.93227 13.2042 2.92799V5.4568C13.2042 5.69363 13.3959 5.88468 13.6321 5.88468C13.8683 5.88468 14.06 5.69302 14.06 5.4568V2.9518C14.1741 2.95912 14.2877 2.95729 14.4024 2.96889C17.6252 3.38456 20.2444 4.84825 22.0798 7.59008C22.0901 7.60839 22.1017 7.6267 22.1152 7.6444C22.3905 8.06617 22.6254 8.48917 22.8403 8.94451C22.8476 8.96282 22.8562 8.98113 22.8659 8.99822C23.1608 9.64706 23.3481 10.2288 23.5288 10.9105C23.6021 11.2353 23.6613 11.5386 23.7119 11.8682L23.7437 12.1142L23.7717 12.3645L23.7919 12.6153C23.7931 12.6367 23.7931 12.6568 23.7949 12.677H21.2802C21.044 12.677 20.8529 12.8693 20.8529 13.1049C20.8529 13.3417 21.0446 13.5327 21.2802 13.5327H23.8175C23.8169 13.5645 23.8175 13.595 23.8157 13.6267H23.8169L23.809 13.8385ZM18.752 7.42955L10.9043 10.6572C10.85 10.678 10.7981 10.7091 10.7542 10.7531C10.7102 10.7976 10.6791 10.8489 10.6577 10.9038L7.43065 18.7515C7.38914 18.8522 7.38548 18.9688 7.43065 19.0768C7.51976 19.2953 7.77063 19.3997 7.98914 19.31L15.8374 16.0817C15.8917 16.0615 15.943 16.0298 15.987 15.9865C16.0315 15.9431 16.062 15.8912 16.0828 15.8369L19.3111 7.98866C19.3526 7.88733 19.3556 7.77136 19.3111 7.66271C19.2207 7.4442 18.9705 7.33982 18.752 7.42955ZM11.2095 11.8163L11.8577 12.4646C11.6917 12.7435 11.602 13.0554 11.602 13.3698C11.602 13.8227 11.7747 14.275 12.1202 14.6198C12.4651 14.9647 12.918 15.138 13.3703 15.138C13.684 15.138 13.9965 15.0489 14.2754 14.8823L14.9243 15.5311L8.61295 18.1271L11.2095 11.8163ZM13.3709 12.4609C13.6034 12.4609 13.836 12.5494 14.013 12.727C14.1906 12.904 14.2791 13.1366 14.2791 13.3692C14.2791 13.6017 14.1906 13.8343 14.013 14.0119C13.836 14.1889 13.6028 14.2774 13.3709 14.2774C13.1383 14.2774 12.9051 14.1889 12.7281 14.0119C12.5511 13.8343 12.462 13.6011 12.462 13.3692C12.462 13.1366 12.5511 12.904 12.7281 12.727C12.9051 12.5494 13.1383 12.4609 13.3709 12.4609ZM15.5322 14.9232L14.8828 14.2744C15.0494 13.9954 15.1391 13.6835 15.1391 13.3692C15.1391 12.9169 14.9658 12.464 14.6209 12.1191C14.2761 11.7742 13.8225 11.6009 13.3709 11.6009C13.0565 11.6009 12.7446 11.69 12.4657 11.8572L11.8168 11.2084L18.1282 8.61307L15.5322 14.9232Z" fill="#52CC8A"/>
</g>
<mask id="mask3_1073_7770" style="mask-type:luminance" maskUnits="userSpaceOnUse" x="7" y="7" width="7" height="14">
<path d="M7.09424 7.1582H13.5399V20.0494H7.09424V7.1582Z" fill="white"/>
</mask>
<g mask="url(#mask3_1073_7770)">
<path d="M26.7151 13.3561C26.7151 9.93736 25.4101 6.5174 22.802 3.90924C20.1932 1.30048 16.7739 -0.00390625 13.3551 -0.00390625C9.93577 -0.00390625 6.51642 1.30048 3.90826 3.90924C1.2995 6.5174 -0.00488281 9.93736 -0.00488281 13.3561C-0.00488281 16.7748 1.2995 20.1942 3.90826 22.8029C6.51642 25.4111 9.93577 26.7161 13.3551 26.7161C16.7739 26.7161 20.1932 25.4111 22.802 22.8029C25.4101 20.1942 26.7151 16.7748 26.7151 13.3561ZM13.3551 25.8567C10.1555 25.8567 6.95589 24.6365 4.51498 22.1956C2.07407 19.7547 0.853922 16.5551 0.853922 13.3561C0.853922 10.1571 2.07407 6.95748 4.51498 4.51657C6.95589 2.07566 10.1555 0.854899 13.3551 0.854899C16.5541 0.854899 19.7537 2.07566 22.1946 4.51657C24.6356 6.95748 25.8557 10.1571 25.8557 13.3561C25.8557 16.5551 24.6356 19.7547 22.1946 22.1956C19.7537 24.6365 16.5541 25.8567 13.3551 25.8567ZM24.6404 13.1309C24.6423 13.118 24.6478 13.1077 24.6478 13.0949C24.6478 13.079 24.6404 13.0649 24.6386 13.0491C24.6362 12.8837 24.6325 12.7164 24.6233 12.5443L24.6032 12.3099C24.6032 12.2843 24.6008 12.2605 24.5959 12.2367L24.5721 12.0047C24.5 11.4603 24.4097 10.9683 24.2699 10.436C24.2651 10.4122 24.2596 10.3878 24.2504 10.3652C24.1558 10.0234 24.0502 9.69809 23.9275 9.36482C23.7804 9.01812 23.6541 8.69279 23.488 8.35159C22.9668 7.40184 22.5621 6.72492 21.8425 5.89786L21.7717 5.82156C21.7546 5.79837 21.735 5.77639 21.7131 5.75686C21.5916 5.6238 21.4695 5.49684 21.3432 5.36683C19.3722 3.54423 17.1926 2.33812 14.4697 2.11411C14.2097 2.08909 13.946 2.08359 13.6823 2.07566C13.6597 2.07139 13.6389 2.06223 13.6151 2.06223C13.6005 2.06223 13.5889 2.06894 13.5749 2.07017C13.501 2.06894 13.429 2.05918 13.3557 2.05918V2.05735C12.9987 2.05735 12.6343 2.07566 12.2625 2.11167C12.2375 2.11167 12.2125 2.11411 12.1881 2.119C11.3573 2.20567 10.385 2.40099 9.60555 2.69642L9.60494 2.69519C9.16791 2.85084 8.7675 3.02419 8.34939 3.22439C8.18337 3.30924 7.99964 3.39896 7.8385 3.49357C7.39109 3.74383 6.95955 4.02521 6.54816 4.33651C6.13371 4.64963 5.73879 4.99328 5.36646 5.36561C5.16809 5.56398 4.97216 5.77578 4.77928 6.0004C4.58945 6.22136 4.41061 6.44598 4.24275 6.67487L4.23848 6.67976C4.16584 6.77925 4.08589 6.89278 3.99799 7.02279C3.90704 7.15646 3.83075 7.27366 3.76727 7.37559L3.76421 7.37986C3.61894 7.61303 3.481 7.85291 3.35221 8.09889C3.22647 8.33816 3.10622 8.58903 2.99269 8.84966L2.88527 9.10419L2.7815 9.37153C2.73633 9.493 2.69117 9.61935 2.64722 9.74875C2.60266 9.88242 2.56116 10.013 2.52331 10.14C2.50988 10.1882 2.46472 10.3683 2.44824 10.4025C2.40124 10.5789 2.35729 10.7559 2.31883 10.9323C2.2816 11.1032 2.24681 11.282 2.21568 11.4664L2.21446 11.4749C2.18455 11.655 2.15891 11.8308 2.13877 12.0017C2.1168 12.1787 2.09971 12.3593 2.08689 12.5425C2.07834 12.7274 2.06431 12.9075 2.06186 13.0936H2.06003C2.06553 13.2584 2.06675 13.4184 2.06919 13.5789C2.06736 13.5917 2.06186 13.6027 2.06186 13.6149C2.06186 13.6314 2.06919 13.6454 2.07102 13.6607C2.07346 13.8261 2.07712 13.9933 2.08689 14.1655L2.10703 14.3998C2.10703 14.4255 2.10947 14.4493 2.11436 14.4737L2.13816 14.705C2.2108 15.2477 2.29991 15.7439 2.44091 16.2743C2.44579 16.2987 2.4519 16.3219 2.46044 16.3445C2.55505 16.6863 2.66065 17.0117 2.78394 17.3455C2.92983 17.6922 3.05678 18.0176 3.22342 18.3588C3.74407 19.3079 4.14936 19.9854 4.86839 20.8119L4.93859 20.8882C4.95629 20.912 4.97521 20.934 4.99779 20.9529L5.16443 21.1336L5.36707 21.3423C6.56586 22.4508 7.55406 23.1875 9.07025 23.8076L9.06964 23.8089C10.0896 24.2245 11.1303 24.4803 12.2247 24.5932C12.5152 24.6219 12.7997 24.6365 13.0811 24.6439C13.0859 24.6439 13.0902 24.6463 13.0951 24.6463C13.0988 24.6463 13.1024 24.6445 13.1055 24.6445C13.1885 24.6463 13.2727 24.6512 13.3551 24.6512C13.7122 24.6512 14.0784 24.6329 14.4508 24.5969C14.4752 24.5969 14.4984 24.5944 14.5216 24.5901C15.8974 24.4473 17.1157 24.0823 18.3608 23.4847C18.5263 23.4005 18.7118 23.3108 18.8717 23.2156C19.3191 22.9653 19.7519 22.6839 20.1633 22.3726C20.5771 22.0595 20.9721 21.7165 21.345 21.3441C21.5434 21.1458 21.7387 20.934 21.9322 20.7087C22.1214 20.4884 22.3008 20.2632 22.4681 20.0349L22.4724 20.0294C22.545 19.9299 22.6256 19.8164 22.7129 19.6863C22.8038 19.5533 22.8807 19.4355 22.9442 19.3342L22.9466 19.3293C23.0925 19.0961 23.2298 18.8562 23.3586 18.6102C23.4844 18.3716 23.6046 18.1201 23.7182 17.8595L23.8256 17.6049L23.9293 17.3382C23.9745 17.2161 24.0203 17.0904 24.0636 16.9604C24.1082 16.8267 24.1497 16.6961 24.1875 16.5691C24.201 16.5209 24.2467 16.3415 24.2626 16.3067C24.3102 16.1303 24.3536 15.9533 24.392 15.7769C24.4299 15.606 24.4646 15.4277 24.4952 15.2428L24.4964 15.2342C24.5263 15.0542 24.5519 14.8784 24.5727 14.7075C24.594 14.5305 24.6111 14.3498 24.624 14.1667C24.6325 13.9817 24.6465 13.8017 24.6496 13.6161H24.6508C24.6447 13.4513 24.6429 13.292 24.6404 13.1309ZM23.7853 13.8243C23.7829 13.8413 23.7816 13.859 23.7822 13.8767L23.7664 14.1294C23.7548 14.2863 23.7389 14.4462 23.7194 14.608C23.7005 14.7679 23.6779 14.9242 23.6528 15.0749L23.6437 15.1317C23.6174 15.2818 23.5875 15.4375 23.5521 15.5962C23.5173 15.7537 23.4795 15.9105 23.4386 16.0644C23.4154 16.1522 23.3916 16.242 23.3641 16.3286C23.3275 16.4526 23.2891 16.574 23.25 16.69C23.214 16.7968 23.1749 16.9067 23.1334 17.0178C23.1243 17.0373 23.1169 17.0581 23.1108 17.0788L23.0296 17.2839L22.9442 17.4896C22.9326 17.511 22.9234 17.5329 22.9161 17.5555C22.8215 17.7704 22.7159 17.9895 22.5993 18.2111C22.4852 18.4284 22.3613 18.6438 22.2288 18.8581L22.2007 18.9038C22.1269 19.0204 22.0616 19.1224 22.0042 19.2072C21.9444 19.2945 21.8748 19.394 21.793 19.5051L21.7588 19.5515C21.6068 19.7572 21.4475 19.958 21.2809 20.1515C21.1155 20.3437 20.9342 20.539 20.7371 20.7362C20.3879 21.0847 20.0229 21.4021 19.6457 21.6878C19.2599 21.9802 18.8614 22.2402 18.4542 22.4685C18.2949 22.5503 18.1429 22.6351 17.9812 22.7169C16.8062 23.279 15.6996 23.6062 14.4007 23.7423C14.1163 23.771 13.8202 23.7802 13.5224 23.785V21.2569C13.5224 21.0206 13.3307 20.8296 13.0951 20.8296C12.8595 20.8296 12.6672 21.0212 12.6672 21.2569V23.7594C12.5494 23.7521 12.4249 23.7533 12.3089 23.7423C11.2786 23.6276 10.3569 23.4072 9.39131 23.0147L9.3907 23.016C7.42405 22.1804 5.8511 20.9144 4.65354 19.1254C4.64377 19.1065 4.63156 19.0888 4.61814 19.0711C4.34347 18.6499 4.10847 18.2269 3.89423 17.7722C3.8869 17.7533 3.87775 17.7356 3.86798 17.7179C3.59331 17.1142 3.38029 16.5069 3.22037 15.8641C3.21731 15.8452 3.21243 15.8263 3.20633 15.8074C3.13308 15.482 3.07449 15.1805 3.02382 14.8503L2.99147 14.6043L2.9634 14.3547L2.94325 14.1044C2.94203 14.0831 2.94203 14.0629 2.94081 14.0416H5.45314C5.68874 14.0416 5.8804 13.8499 5.8804 13.6137C5.8804 13.3775 5.68874 13.1864 5.45314 13.1864H2.91823C2.91884 13.1547 2.91823 13.1241 2.92006 13.093H2.91884L2.92616 12.8855C2.92799 12.8684 2.92921 12.8501 2.9286 12.8324L2.94447 12.5797C2.95607 12.4228 2.97194 12.2629 2.99147 12.1018C3.01101 11.9412 3.03298 11.785 3.058 11.6336L3.06777 11.5768C3.09341 11.4267 3.12393 11.271 3.15933 11.1117C3.19412 10.9542 3.23135 10.798 3.27286 10.6442C3.29544 10.5557 3.31925 10.4659 3.34671 10.3793C3.38334 10.2554 3.42179 10.1345 3.46086 10.0179C3.49748 9.91111 3.53593 9.80185 3.57744 9.69015C3.58659 9.67062 3.59392 9.64987 3.60002 9.6285L3.68181 9.42342L3.76727 9.21772C3.77825 9.19635 3.78802 9.17377 3.79534 9.15119C3.88934 8.93633 3.99494 8.71721 4.11152 8.49564C4.22505 8.27895 4.34957 8.06288 4.48263 7.84802L4.51071 7.80286C4.58396 7.68627 4.64927 7.58434 4.70664 7.4995C4.76646 7.41221 4.83665 7.31272 4.91783 7.20163L4.95201 7.15463C5.10461 6.94893 5.26331 6.74873 5.43055 6.55524C5.59536 6.36297 5.77725 6.16765 5.9744 5.97049C6.32293 5.62197 6.68794 5.30457 7.06576 5.01891C7.45091 4.72654 7.8501 4.46652 8.25661 4.23824C8.41653 4.15645 8.56791 4.0716 8.72966 3.98981C9.89609 3.43131 11.01 3.09988 12.2967 2.9662L12.3083 2.96437C12.5934 2.93568 12.89 2.92653 13.1885 2.92165V5.44862C13.1885 5.68545 13.3801 5.8765 13.6158 5.8765C13.852 5.8765 14.0436 5.68484 14.0436 5.44862V2.94606C14.1578 2.95339 14.2713 2.95094 14.3854 2.96254C17.6058 3.37821 20.2231 4.84068 22.0573 7.58068C22.0677 7.59899 22.0799 7.6173 22.0927 7.63439C22.3674 8.05616 22.6024 8.47916 22.8172 8.93389C22.8246 8.95281 22.8331 8.97051 22.8429 8.98821C23.1377 9.63583 23.3245 10.2169 23.5051 10.8987C23.5784 11.2228 23.6376 11.5262 23.6882 11.8558L23.72 12.1018L23.7481 12.3514L23.7682 12.6017C23.7694 12.623 23.7694 12.6432 23.7713 12.6639H21.2589C21.0221 12.6639 20.8311 12.8556 20.8311 13.0912C20.8311 13.328 21.0227 13.5191 21.2589 13.5191H23.7938C23.7932 13.5502 23.7938 13.5813 23.7914 13.6125H23.7932L23.7853 13.8243ZM18.732 7.42015L10.8904 10.6454C10.8361 10.6661 10.7842 10.6973 10.7402 10.7412C10.6963 10.7858 10.6658 10.8371 10.6438 10.892L7.41917 18.7335C7.37767 18.8343 7.374 18.9502 7.41917 19.0589C7.50829 19.2774 7.75915 19.3812 7.97767 19.292L15.8198 16.0662C15.8742 16.0454 15.9254 16.0137 15.9694 15.9704C16.0133 15.927 16.0445 15.8757 16.0652 15.8208L19.2905 7.97865C19.332 7.87793 19.3356 7.76135 19.2905 7.65331C19.2007 7.4348 18.9505 7.33042 18.732 7.42015ZM11.195 11.8033L11.8432 12.4515C11.6766 12.7298 11.5875 13.0417 11.5875 13.3561C11.5875 13.8084 11.7602 14.2607 12.1051 14.6049C12.4499 14.9498 12.9028 15.1225 13.3539 15.1225C13.6682 15.1225 13.9801 15.034 14.2585 14.8668L14.9073 15.5156L8.60087 18.1097L11.195 11.8033ZM13.3551 12.4472C13.5871 12.4472 13.8196 12.5364 13.9966 12.7134C14.1736 12.8904 14.2628 13.1229 14.2628 13.3555C14.2628 13.588 14.1736 13.82 13.9966 13.997C13.8196 14.174 13.5865 14.2631 13.3551 14.2631C13.1226 14.2631 12.89 14.174 12.713 13.997C12.536 13.82 12.4469 13.5868 12.4469 13.3555C12.4469 13.1229 12.536 12.8904 12.713 12.7134C12.89 12.5364 13.1226 12.4472 13.3551 12.4472ZM15.5146 14.9083L14.8658 14.2601C15.0324 13.9811 15.1216 13.6692 15.1216 13.3555C15.1216 12.9032 14.9488 12.4509 14.604 12.106C14.2591 11.7612 13.8062 11.5884 13.3551 11.5884C13.0408 11.5884 12.7289 11.6775 12.4505 11.8442L11.8023 11.1966L18.1088 8.60245L15.5146 14.9083Z" fill="black"/>
</g>
<path d="M39.5328 8.71875C40.3702 8.71875 41.0849 8.86357 41.6736 9.14693V11.2122L41.661 11.2248C41.4092 10.8407 40.8803 10.5826 40.0743 10.4566C39.8381 10.4157 39.5359 10.3937 39.1675 10.3937C38.8055 10.3937 38.4497 10.4661 38.0971 10.6078C37.7508 10.7431 37.4674 10.9352 37.2408 11.1871C36.8031 11.6751 36.5859 12.3708 36.5859 13.2776C36.5859 14.3354 36.8629 15.1225 37.4171 15.6325C37.8704 16.0607 38.4749 16.2748 39.2305 16.2748C40.0869 16.2748 40.7795 16.0953 41.3084 15.7333C41.5005 15.6074 41.6642 15.4499 41.7996 15.2547L41.8122 15.2673V17.1438C41.1321 17.7168 40.2065 18.0001 39.0416 18.0001C37.6721 18.0001 36.6016 17.5688 35.8303 16.703C35.081 15.8718 34.7095 14.773 34.7095 13.4035C34.7095 11.9521 35.1156 10.8093 35.931 9.97809C36.7528 9.14063 37.9523 8.71875 39.5328 8.71875Z" fill="#291B25"/>
<path d="M46.1748 16.7785C45.7719 16.385 45.4476 15.9159 45.2052 15.3681C44.969 14.8234 44.8525 14.2221 44.8525 13.5672C44.8525 12.9124 44.9596 12.2953 45.18 11.716C45.4066 11.1304 45.7215 10.6141 46.1245 10.167C46.5338 9.72308 47.0312 9.37046 47.6105 9.10915C48.1898 8.85098 48.8384 8.71875 49.5625 8.71875C50.7966 8.71875 51.8356 9.10915 52.6856 9.88994C53.5924 10.7211 54.0457 11.8482 54.0457 13.265C54.0457 14.644 53.5798 15.7837 52.6479 16.6904C52.0749 17.2539 51.3917 17.6412 50.5951 17.849C50.1984 17.9497 49.7419 18.0001 49.2225 18.0001C48.6998 18.0001 48.1646 17.8931 47.6105 17.6853C47.0627 17.468 46.5841 17.1658 46.1748 16.7785ZM46.729 13.4791C46.729 13.8915 46.7951 14.2725 46.9305 14.6251C47.0721 14.9777 47.2705 15.2799 47.5223 15.5318C48.0418 16.0607 48.7187 16.3252 49.5499 16.3252C50.3307 16.3252 50.9604 16.0702 51.4389 15.557C51.9237 15.0375 52.1693 14.3228 52.1693 13.4161C52.1693 12.5597 51.9332 11.8482 51.4641 11.2752C50.9666 10.6707 50.2866 10.3685 49.424 10.3685C48.5833 10.3685 47.9159 10.677 47.4216 11.2878C46.9588 11.8671 46.729 12.5975 46.729 13.4791Z" fill="#291B25"/>
<path d="M59.5271 17.8741C59.3162 17.8489 58.9006 17.8363 58.2804 17.8363H57.7515V8.85722C58.0348 8.87611 58.3497 8.8824 58.696 8.8824C59.0391 8.8824 59.2816 8.86666 59.4264 8.83203L61.6932 12.673L63.8719 8.83203C64.0135 8.86666 64.2875 8.8824 64.6904 8.8824C65.0934 8.8824 65.4366 8.87611 65.7231 8.85722V17.8363H65.1816C64.5677 17.8363 64.1552 17.8489 63.9474 17.8741V11.8419L61.7436 15.7836L59.5271 12.1567V17.8741Z" fill="#291B25"/>
<path d="M69.8833 8.83209C70.5035 8.75653 71.1426 8.71875 71.7975 8.71875C73.0222 8.71875 73.951 9.00525 74.5806 9.5751C75.2166 10.1481 75.5377 11.0045 75.5377 12.1442C75.5377 13.1611 75.1883 13.9671 74.4925 14.5621C73.8439 15.1162 73.0096 15.3933 71.9864 15.3933C71.8668 15.3933 71.7377 15.387 71.596 15.3681V17.8364H69.8833V8.83209ZM71.999 10.3307C71.8636 10.3307 71.7282 10.337 71.596 10.3433V13.8946C71.7377 13.9135 71.9108 13.9198 72.1123 13.9198C72.3201 13.9198 72.5405 13.8789 72.7672 13.7939C72.9939 13.7026 73.1828 13.5767 73.3339 13.4161C73.6519 13.0887 73.8124 12.6605 73.8124 12.1316C73.8124 10.932 73.208 10.3307 71.999 10.3307Z" fill="#52CC8A"/>
<path d="M79.5042 17.881C79.117 17.8464 78.6636 17.8307 78.1442 17.8307H77.6152L80.5495 9.61976C80.6754 9.2514 80.7384 9.03732 80.7384 8.9775C80.7384 8.92083 80.7384 8.88305 80.7384 8.86416V8.85156C81.0312 8.87045 81.3429 8.87675 81.6703 8.87675C81.9379 8.87675 82.2622 8.8736 82.64 8.86416L82.6526 8.87675C82.6337 8.89564 82.6274 8.92083 82.6274 8.95231C82.6274 9.03732 82.6935 9.264 82.8289 9.63235L85.8261 17.8559C85.7317 17.8464 85.6278 17.8433 85.5113 17.8433C85.5113 17.8433 85.3917 17.837 85.1587 17.8307C85.0485 17.8307 84.9478 17.8307 84.8565 17.8307H83.8112L83.1815 15.8913H80.1339L79.5042 17.881ZM82.6526 14.2793L81.6325 11.1436L80.6502 14.2793H82.6526Z" fill="#52CC8A"/>
<path d="M94.241 9.37361L94.115 11.3634L94.0646 11.376C93.7372 10.8722 93.1737 10.5511 92.3771 10.4063C92.1253 10.3559 91.8797 10.3307 91.6467 10.3307C91.42 10.3307 91.2217 10.3527 91.0548 10.3937C90.8943 10.4283 90.7557 10.4881 90.6392 10.57C90.3874 10.7305 90.2614 10.9415 90.2614 11.1997C90.2614 11.5365 90.3685 11.7915 90.5889 11.9679C90.8565 12.1693 91.3004 12.3142 91.9238 12.396C92.5534 12.481 93.0572 12.5944 93.435 12.7361C93.8128 12.8809 94.1182 13.0635 94.3543 13.2902C94.814 13.7026 95.0469 14.285 95.0469 15.0406C95.0469 16.0229 94.6723 16.7848 93.9261 17.3201C93.287 17.7734 92.4842 18.0001 91.5208 18.0001C90.74 18.0001 89.9655 17.8521 89.2036 17.5593C88.9517 17.4586 88.7282 17.3452 88.5361 17.2193L88.6117 14.9651L88.6369 14.9525C89.1973 15.9096 90.1135 16.3881 91.3822 16.3881C92.289 16.3881 92.884 16.1709 93.1705 15.7333C93.2713 15.5916 93.3216 15.4279 93.3216 15.2421C93.3216 15.0595 93.2902 14.9084 93.2335 14.7888C93.1737 14.6723 93.0761 14.5715 92.9438 14.4865C92.6825 14.3102 92.2449 14.1969 91.6341 14.1465C91.0202 14.0898 90.5164 13.9797 90.1229 13.8191C89.7357 13.6522 89.424 13.4507 89.191 13.2146C88.7691 12.7801 88.5613 12.1756 88.5613 11.4011C88.5613 10.6046 88.8384 9.9592 89.3925 9.46176C89.9623 8.96747 90.7305 8.71875 91.6971 8.71875C92.6699 8.71875 93.5168 8.93914 94.241 9.37361Z" fill="#52CC8A"/>
<path d="M104.207 9.37361L104.081 11.3634L104.031 11.376C103.704 10.8722 103.14 10.5511 102.343 10.4063C102.092 10.3559 101.846 10.3307 101.613 10.3307C101.386 10.3307 101.188 10.3527 101.021 10.3937C100.861 10.4283 100.722 10.4881 100.606 10.57C100.354 10.7305 100.228 10.9415 100.228 11.1997C100.228 11.5365 100.335 11.7915 100.555 11.9679C100.823 12.1693 101.267 12.3142 101.89 12.396C102.52 12.481 103.023 12.5944 103.401 12.7361C103.779 12.8809 104.084 13.0635 104.321 13.2902C104.78 13.7026 105.013 14.285 105.013 15.0406C105.013 16.0229 104.639 16.7848 103.892 17.3201C103.253 17.7734 102.45 18.0001 101.487 18.0001C100.706 18.0001 99.9318 17.8521 99.1699 17.5593C98.918 17.4586 98.6945 17.3452 98.5024 17.2193L98.578 14.9651L98.6032 14.9525C99.1636 15.9096 100.08 16.3881 101.349 16.3881C102.255 16.3881 102.85 16.1709 103.137 15.7333C103.238 15.5916 103.288 15.4279 103.288 15.2421C103.288 15.0595 103.256 14.9084 103.2 14.7888C103.14 14.6723 103.042 14.5715 102.91 14.4865C102.649 14.3102 102.211 14.1969 101.6 14.1465C100.986 14.0898 100.483 13.9797 100.089 13.8191C99.702 13.6522 99.3903 13.4507 99.1573 13.2146C98.7354 12.7801 98.5276 12.1756 98.5276 11.4011C98.5276 10.6046 98.8047 9.9592 99.3588 9.46176C99.9286 8.96747 100.697 8.71875 101.663 8.71875C102.636 8.71875 103.483 8.93914 104.207 9.37361Z" fill="#52CC8A"/>
</svg>
