<svg xmlns="http://www.w3.org/2000/svg" xmlns:xlink="http://www.w3.org/1999/xlink" width="500" zoomAndPan="magnify" viewBox="0 0 375 374.999991" height="500" preserveAspectRatio="xMidYMid meet" version="1.0"><defs><g/><clipPath id="85d1732fe6"><path d="M 102.417969 79.589844 L 181.917969 79.589844 L 181.917969 250.589844 L 102.417969 250.589844 Z M 102.417969 79.589844 " clip-rule="nonzero"/></clipPath><clipPath id="5b61a017f6"><path d="M 194.417969 79.589844 L 273.351562 79.589844 L 273.351562 250.589844 L 194.417969 250.589844 Z M 194.417969 79.589844 " clip-rule="nonzero"/></clipPath><clipPath id="a238666a7f"><path d="M 188.609375 122.664062 L 228.359375 122.664062 L 228.359375 208.914062 L 188.609375 208.914062 Z M 188.609375 122.664062 " clip-rule="nonzero"/></clipPath><clipPath id="56cceda078"><path d="M 147.816406 125.398438 L 189.066406 125.398438 L 189.066406 207.898438 L 147.816406 207.898438 Z M 147.816406 125.398438 " clip-rule="nonzero"/></clipPath></defs><g clip-path="url(#85d1732fe6)"><path fill="#000000" d="M 273.417969 165.089844 C 273.417969 143.207031 265.070312 121.324219 248.375 104.632812 C 231.683594 87.9375 209.796875 79.589844 187.917969 79.589844 C 166.039062 79.589844 144.15625 87.9375 127.460938 104.632812 C 110.769531 121.324219 102.417969 143.207031 102.417969 165.089844 C 102.417969 186.96875 110.769531 208.851562 127.460938 225.546875 C 144.15625 242.238281 166.039062 250.589844 187.917969 250.589844 C 209.796875 250.589844 231.683594 242.238281 248.375 225.546875 C 265.070312 208.851562 273.417969 186.96875 273.417969 165.089844 Z M 187.917969 245.089844 C 167.445312 245.089844 146.96875 237.28125 131.347656 221.660156 C 115.726562 206.039062 107.917969 185.5625 107.917969 165.089844 C 107.917969 144.617188 115.726562 124.136719 131.347656 108.515625 C 146.96875 92.898438 167.445312 85.085938 187.917969 85.085938 C 208.390625 85.085938 228.871094 92.898438 244.488281 108.515625 C 260.109375 124.136719 267.921875 144.617188 267.921875 165.089844 C 267.921875 185.5625 260.109375 206.039062 244.488281 221.660156 C 228.871094 237.28125 208.390625 245.089844 187.917969 245.089844 Z M 260.144531 163.648438 C 260.152344 163.566406 260.191406 163.5 260.191406 163.417969 C 260.191406 163.3125 260.144531 163.222656 260.132812 163.125 C 260.113281 162.066406 260.09375 160.996094 260.035156 159.894531 L 259.90625 158.394531 C 259.90625 158.230469 259.886719 158.078125 259.859375 157.921875 L 259.703125 156.441406 C 259.242188 152.957031 258.664062 149.808594 257.773438 146.402344 C 257.742188 146.25 257.703125 146.09375 257.648438 145.949219 C 257.042969 143.761719 256.367188 141.679688 255.578125 139.546875 C 254.640625 137.328125 253.832031 135.246094 252.765625 133.058594 C 249.433594 126.984375 246.839844 122.652344 242.238281 117.359375 L 241.785156 116.871094 C 241.671875 116.722656 241.550781 116.578125 241.40625 116.457031 C 240.628906 115.605469 239.851562 114.792969 239.042969 113.960938 C 226.429688 102.296875 212.480469 94.578125 195.054688 93.144531 C 193.390625 92.980469 191.703125 92.949219 190.015625 92.898438 C 189.867188 92.871094 189.734375 92.8125 189.585938 92.8125 C 189.492188 92.8125 189.414062 92.855469 189.324219 92.863281 C 188.855469 92.855469 188.394531 92.792969 187.921875 92.792969 L 187.921875 92.78125 C 185.640625 92.78125 183.304688 92.898438 180.929688 93.128906 C 180.765625 93.128906 180.609375 93.144531 180.449219 93.175781 C 175.136719 93.730469 168.914062 94.976562 163.921875 96.871094 L 163.917969 96.863281 C 161.125 97.859375 158.5625 98.96875 155.886719 100.25 C 154.820312 100.792969 153.644531 101.367188 152.617188 101.972656 C 149.75 103.574219 146.988281 105.375 144.355469 107.367188 C 141.707031 109.371094 139.179688 111.570312 136.792969 113.949219 C 135.523438 115.21875 134.273438 116.574219 133.035156 118.015625 C 131.824219 119.425781 130.675781 120.867188 129.605469 122.328125 L 129.578125 122.363281 C 129.113281 123 128.597656 123.726562 128.039062 124.558594 C 127.457031 125.414062 126.964844 126.164062 126.558594 126.8125 L 126.542969 126.84375 C 125.609375 128.335938 124.730469 129.871094 123.90625 131.445312 C 123.101562 132.976562 122.332031 134.582031 121.605469 136.25 L 120.917969 137.878906 L 120.253906 139.589844 C 119.964844 140.367188 119.671875 141.175781 119.394531 142.003906 C 119.109375 142.859375 118.84375 143.695312 118.601562 144.507812 C 118.515625 144.816406 118.222656 145.964844 118.121094 146.1875 C 117.816406 147.316406 117.539062 148.449219 117.292969 149.578125 C 117.050781 150.671875 116.828125 151.816406 116.632812 152.996094 L 116.625 153.050781 C 116.433594 154.203125 116.269531 155.328125 116.136719 156.421875 C 116 157.554688 115.890625 158.710938 115.808594 159.882812 C 115.753906 161.066406 115.664062 162.21875 115.644531 163.410156 L 115.636719 163.410156 C 115.671875 164.464844 115.679688 165.484375 115.691406 166.515625 C 115.683594 166.597656 115.644531 166.664062 115.644531 166.746094 C 115.644531 166.851562 115.691406 166.941406 115.707031 167.039062 C 115.722656 168.097656 115.746094 169.167969 115.808594 170.269531 L 115.9375 171.769531 C 115.9375 171.933594 115.953125 172.085938 115.984375 172.242188 L 116.136719 173.722656 C 116.597656 177.195312 117.171875 180.371094 118.074219 183.765625 C 118.105469 183.917969 118.140625 184.070312 118.199219 184.214844 C 118.804688 186.402344 119.480469 188.484375 120.265625 190.617188 C 121.203125 192.835938 122.015625 194.917969 123.078125 197.105469 C 126.414062 203.179688 129.003906 207.511719 133.609375 212.804688 L 134.058594 213.292969 C 134.167969 213.441406 134.292969 213.585938 134.433594 213.707031 L 135.503906 214.863281 L 136.796875 216.199219 C 144.472656 223.292969 150.792969 228.007812 160.5 231.976562 L 160.496094 231.984375 C 167.023438 234.644531 173.683594 236.28125 180.6875 237.003906 C 182.546875 237.1875 184.367188 237.28125 186.167969 237.328125 C 186.195312 237.328125 186.226562 237.34375 186.257812 237.34375 C 186.28125 237.34375 186.304688 237.332031 186.324219 237.332031 C 186.855469 237.34375 187.394531 237.375 187.917969 237.375 C 190.207031 237.375 192.546875 237.257812 194.933594 237.027344 C 195.089844 237.027344 195.238281 237.011719 195.386719 236.984375 C 204.191406 236.070312 211.988281 233.730469 219.957031 229.910156 C 221.015625 229.371094 222.199219 228.792969 223.226562 228.1875 C 226.089844 226.585938 228.855469 224.785156 231.488281 222.792969 C 234.140625 220.789062 236.667969 218.59375 239.050781 216.207031 C 240.320312 214.9375 241.574219 213.585938 242.808594 212.144531 C 244.023438 210.734375 245.167969 209.292969 246.242188 207.828125 L 246.269531 207.796875 C 246.734375 207.160156 247.246094 206.433594 247.808594 205.601562 C 248.390625 204.746094 248.878906 203.996094 249.285156 203.34375 L 249.304688 203.316406 C 250.234375 201.824219 251.117188 200.289062 251.941406 198.714844 C 252.746094 197.183594 253.515625 195.578125 254.242188 193.910156 L 254.929688 192.28125 L 255.59375 190.570312 C 255.882812 189.792969 256.171875 188.984375 256.453125 188.15625 C 256.738281 187.300781 257.003906 186.464844 257.246094 185.652344 C 257.332031 185.34375 257.621094 184.195312 257.726562 183.972656 C 258.027344 182.84375 258.308594 181.710938 258.554688 180.582031 C 258.792969 179.488281 259.015625 178.34375 259.214844 177.164062 L 259.222656 177.109375 C 259.414062 175.957031 259.578125 174.832031 259.710938 173.738281 C 259.847656 172.605469 259.957031 171.449219 260.039062 170.277344 C 260.09375 169.09375 260.183594 167.941406 260.199219 166.75 L 260.210938 166.75 C 260.171875 165.699219 260.15625 164.679688 260.144531 163.648438 Z M 254.667969 168.085938 C 254.65625 168.195312 254.648438 168.308594 254.652344 168.421875 L 254.550781 170.039062 C 254.476562 171.042969 254.375 172.066406 254.25 173.101562 C 254.125 174.125 253.984375 175.125 253.824219 176.089844 L 253.761719 176.453125 C 253.597656 177.414062 253.402344 178.410156 253.175781 179.425781 C 252.953125 180.429688 252.714844 181.4375 252.449219 182.417969 C 252.304688 182.984375 252.152344 183.554688 251.976562 184.113281 C 251.742188 184.90625 251.496094 185.679688 251.246094 186.425781 C 251.015625 187.109375 250.765625 187.808594 250.5 188.523438 C 250.441406 188.648438 250.394531 188.78125 250.355469 188.914062 L 249.832031 190.226562 L 249.285156 191.542969 C 249.214844 191.679688 249.152344 191.820312 249.105469 191.964844 C 248.503906 193.335938 247.828125 194.738281 247.082031 196.160156 C 246.351562 197.546875 245.558594 198.929688 244.707031 200.300781 L 244.527344 200.59375 C 244.058594 201.339844 243.640625 201.988281 243.273438 202.53125 C 242.890625 203.09375 242.441406 203.730469 241.921875 204.441406 L 241.703125 204.738281 C 240.726562 206.054688 239.710938 207.339844 238.640625 208.578125 C 237.585938 209.808594 236.421875 211.058594 235.160156 212.320312 C 232.929688 214.550781 230.59375 216.582031 228.175781 218.410156 C 225.710938 220.277344 223.15625 221.945312 220.554688 223.402344 C 219.53125 223.929688 218.5625 224.472656 217.527344 224.992188 C 210.007812 228.59375 202.925781 230.6875 194.613281 231.554688 C 192.792969 231.738281 190.898438 231.800781 188.992188 231.828125 L 188.992188 215.652344 C 188.992188 214.140625 187.765625 212.917969 186.257812 212.917969 C 184.746094 212.917969 183.519531 214.144531 183.519531 215.652344 L 183.519531 231.667969 C 182.761719 231.621094 181.96875 231.628906 181.222656 231.554688 C 174.632812 230.824219 168.734375 229.414062 162.554688 226.902344 L 162.550781 226.910156 C 149.964844 221.5625 139.898438 213.460938 132.234375 202.011719 C 132.167969 201.890625 132.089844 201.777344 132.007812 201.664062 C 130.25 198.96875 128.746094 196.261719 127.371094 193.351562 C 127.324219 193.230469 127.269531 193.117188 127.207031 193.003906 C 125.449219 189.140625 124.085938 185.253906 123.0625 181.140625 C 123.042969 181.015625 123.011719 180.898438 122.972656 180.777344 C 122.503906 178.695312 122.125 176.761719 121.800781 174.652344 L 121.597656 173.078125 L 121.417969 171.480469 L 121.289062 169.875 C 121.28125 169.738281 121.28125 169.613281 121.273438 169.472656 L 137.351562 169.472656 C 138.859375 169.472656 140.085938 168.246094 140.085938 166.738281 C 140.085938 165.226562 138.859375 164.003906 137.351562 164.003906 L 121.125 164.003906 C 121.128906 163.800781 121.125 163.605469 121.140625 163.402344 L 121.128906 163.402344 L 121.175781 162.078125 C 121.191406 161.96875 121.199219 161.851562 121.195312 161.738281 L 121.296875 160.121094 C 121.371094 159.117188 121.472656 158.09375 121.597656 157.058594 C 121.71875 156.035156 121.863281 155.035156 122.023438 154.066406 L 122.082031 153.703125 C 122.25 152.742188 122.441406 151.746094 122.667969 150.722656 C 122.890625 149.71875 123.132812 148.71875 123.394531 147.730469 C 123.542969 147.167969 123.695312 146.59375 123.871094 146.039062 C 124.105469 145.242188 124.351562 144.46875 124.601562 143.726562 C 124.832031 143.042969 125.082031 142.339844 125.347656 141.628906 C 125.40625 141.503906 125.453125 141.371094 125.492188 141.234375 L 126.011719 139.921875 L 126.558594 138.605469 C 126.632812 138.46875 126.691406 138.324219 126.738281 138.175781 C 127.34375 136.804688 128.019531 135.402344 128.765625 133.984375 C 129.492188 132.597656 130.289062 131.214844 131.136719 129.839844 L 131.316406 129.550781 C 131.789062 128.800781 132.207031 128.152344 132.574219 127.609375 C 132.957031 127.050781 133.402344 126.414062 133.925781 125.703125 L 134.144531 125.402344 C 135.117188 124.085938 136.136719 122.804688 137.203125 121.566406 C 138.261719 120.332031 139.421875 119.085938 140.683594 117.824219 C 142.917969 115.59375 145.253906 113.5625 147.667969 111.730469 C 150.136719 109.863281 152.6875 108.195312 155.292969 106.738281 C 156.3125 106.214844 157.285156 105.671875 158.320312 105.148438 C 165.78125 101.574219 172.914062 99.453125 181.148438 98.59375 L 181.21875 98.585938 C 183.046875 98.402344 184.945312 98.34375 186.855469 98.3125 L 186.855469 114.484375 C 186.855469 116 188.082031 117.222656 189.589844 117.222656 C 191.097656 117.222656 192.328125 115.996094 192.328125 114.484375 L 192.328125 98.46875 C 193.058594 98.515625 193.785156 98.5 194.515625 98.574219 C 215.125 101.234375 231.875 110.59375 243.613281 128.125 C 243.679688 128.246094 243.753906 128.363281 243.839844 128.472656 C 245.597656 131.171875 247.101562 133.875 248.472656 136.789062 C 248.519531 136.90625 248.578125 137.023438 248.640625 137.132812 C 250.527344 141.28125 251.722656 145 252.878906 149.359375 C 253.347656 151.4375 253.722656 153.378906 254.050781 155.488281 L 254.253906 157.058594 L 254.433594 158.660156 L 254.5625 160.261719 C 254.570312 160.398438 254.570312 160.527344 254.578125 160.660156 L 238.5 160.660156 C 236.988281 160.660156 235.765625 161.886719 235.765625 163.394531 C 235.765625 164.910156 236.992188 166.132812 238.5 166.132812 L 254.722656 166.132812 C 254.71875 166.332031 254.722656 166.527344 254.710938 166.730469 L 254.71875 166.730469 Z M 187.917969 250.589844 Z M 222.332031 127.101562 L 172.148438 147.742188 C 171.796875 147.871094 171.46875 148.074219 171.1875 148.355469 C 170.90625 148.636719 170.707031 148.96875 170.570312 149.316406 L 149.929688 199.503906 C 149.667969 200.148438 149.644531 200.890625 149.929688 201.585938 C 150.503906 202.980469 152.105469 203.648438 153.503906 203.074219 L 203.695312 182.433594 C 204.039062 182.300781 204.371094 182.097656 204.652344 181.820312 C 204.933594 181.542969 205.128906 181.214844 205.261719 180.863281 L 225.90625 130.675781 C 226.171875 130.027344 226.191406 129.285156 225.90625 128.59375 C 225.328125 127.195312 223.730469 126.527344 222.332031 127.101562 Z M 174.097656 155.152344 L 178.246094 159.300781 C 177.179688 161.082031 176.605469 163.078125 176.605469 165.089844 C 176.605469 167.984375 177.714844 170.875 179.921875 173.082031 C 182.125 175.289062 185.023438 176.394531 187.914062 176.394531 C 189.925781 176.394531 191.921875 175.828125 193.703125 174.757812 L 197.855469 178.910156 L 157.492188 195.507812 Z M 187.917969 159.273438 C 189.40625 159.273438 190.894531 159.84375 192.027344 160.976562 C 193.160156 162.109375 193.730469 163.597656 193.730469 165.085938 C 193.730469 166.570312 193.160156 168.058594 192.027344 169.191406 C 190.894531 170.324219 189.402344 170.894531 187.917969 170.894531 C 186.429688 170.894531 184.945312 170.324219 183.8125 169.191406 C 182.679688 168.058594 182.109375 166.566406 182.109375 165.085938 C 182.109375 163.597656 182.679688 162.109375 183.8125 160.976562 C 184.945312 159.84375 186.429688 159.273438 187.917969 159.273438 Z M 201.738281 175.023438 L 197.589844 170.871094 C 198.652344 169.089844 199.226562 167.09375 199.226562 165.085938 C 199.226562 162.191406 198.117188 159.296875 195.914062 157.089844 C 193.707031 154.882812 190.808594 153.777344 187.917969 153.777344 C 185.910156 153.777344 183.914062 154.34375 182.128906 155.414062 L 177.984375 151.265625 L 218.34375 134.667969 Z M 201.738281 175.023438 " fill-opacity="1" fill-rule="nonzero"/></g><g fill="#291b25" fill-opacity="1"><g transform="translate(143.250691, 280.676672)"><g><path d="M 6.421875 -11.3125 C 7.460938 -11.3125 8.347656 -11.132812 9.078125 -10.78125 L 9.078125 -8.21875 L 9.0625 -8.203125 C 8.75 -8.679688 8.09375 -9 7.09375 -9.15625 C 6.800781 -9.207031 6.425781 -9.234375 5.96875 -9.234375 C 5.519531 -9.234375 5.078125 -9.144531 4.640625 -8.96875 C 4.210938 -8.800781 3.859375 -8.5625 3.578125 -8.25 C 3.035156 -7.644531 2.765625 -6.78125 2.765625 -5.65625 C 2.765625 -4.34375 3.109375 -3.367188 3.796875 -2.734375 C 4.359375 -2.203125 5.109375 -1.9375 6.046875 -1.9375 C 7.109375 -1.9375 7.96875 -2.160156 8.625 -2.609375 C 8.863281 -2.765625 9.066406 -2.960938 9.234375 -3.203125 L 9.25 -3.1875 L 9.25 -0.859375 C 8.40625 -0.148438 7.257812 0.203125 5.8125 0.203125 C 4.113281 0.203125 2.785156 -0.332031 1.828125 -1.40625 C 0.898438 -2.4375 0.4375 -3.800781 0.4375 -5.5 C 0.4375 -7.300781 0.941406 -8.71875 1.953125 -9.75 C 2.972656 -10.789062 4.460938 -11.3125 6.421875 -11.3125 Z M 6.421875 -11.3125 "/></g></g></g><g fill="#291b25" fill-opacity="1"><g transform="translate(155.57251, 280.676672)"><g><path d="M 2.34375 -1.3125 C 1.84375 -1.800781 1.441406 -2.382812 1.140625 -3.0625 C 0.847656 -3.738281 0.703125 -4.484375 0.703125 -5.296875 C 0.703125 -6.109375 0.835938 -6.875 1.109375 -7.59375 C 1.390625 -8.320312 1.78125 -8.960938 2.28125 -9.515625 C 2.789062 -10.066406 3.40625 -10.503906 4.125 -10.828125 C 4.84375 -11.148438 5.648438 -11.3125 6.546875 -11.3125 C 8.078125 -11.3125 9.367188 -10.828125 10.421875 -9.859375 C 11.546875 -8.828125 12.109375 -7.429688 12.109375 -5.671875 C 12.109375 -3.960938 11.53125 -2.546875 10.375 -1.421875 C 9.664062 -0.722656 8.816406 -0.242188 7.828125 0.015625 C 7.335938 0.140625 6.769531 0.203125 6.125 0.203125 C 5.476562 0.203125 4.8125 0.0703125 4.125 -0.1875 C 3.445312 -0.457031 2.851562 -0.832031 2.34375 -1.3125 Z M 3.03125 -5.40625 C 3.03125 -4.894531 3.113281 -4.421875 3.28125 -3.984375 C 3.457031 -3.546875 3.703125 -3.171875 4.015625 -2.859375 C 4.660156 -2.203125 5.5 -1.875 6.53125 -1.875 C 7.5 -1.875 8.28125 -2.191406 8.875 -2.828125 C 9.476562 -3.472656 9.78125 -4.359375 9.78125 -5.484375 C 9.78125 -6.546875 9.488281 -7.429688 8.90625 -8.140625 C 8.289062 -8.890625 7.445312 -9.265625 6.375 -9.265625 C 5.332031 -9.265625 4.503906 -8.882812 3.890625 -8.125 C 3.316406 -7.40625 3.03125 -6.5 3.03125 -5.40625 Z M 3.03125 -5.40625 "/></g></g></g><g fill="#291b25" fill-opacity="1"><g transform="translate(170.793231, 280.676672)"><g><path d="M 3.6875 0.046875 C 3.425781 0.015625 2.910156 0 2.140625 0 L 1.484375 0 L 1.484375 -11.140625 C 1.835938 -11.117188 2.226562 -11.109375 2.65625 -11.109375 C 3.082031 -11.109375 3.382812 -11.128906 3.5625 -11.171875 L 6.375 -6.40625 L 9.078125 -11.171875 C 9.253906 -11.128906 9.59375 -11.109375 10.09375 -11.109375 C 10.59375 -11.109375 11.019531 -11.117188 11.375 -11.140625 L 11.375 0 L 10.703125 0 C 9.941406 0 9.429688 0.015625 9.171875 0.046875 L 9.171875 -7.4375 L 6.4375 -2.546875 L 3.6875 -7.046875 Z M 3.6875 0.046875 "/></g></g></g><g fill="#52cc8a" fill-opacity="1"><g transform="translate(186.047563, 280.676672)"><g><path d="M 1.28125 -11.171875 C 2.050781 -11.265625 2.84375 -11.3125 3.65625 -11.3125 C 5.175781 -11.3125 6.328125 -10.957031 7.109375 -10.25 C 7.898438 -9.539062 8.296875 -8.476562 8.296875 -7.0625 C 8.296875 -5.800781 7.863281 -4.800781 7 -4.0625 C 6.195312 -3.375 5.160156 -3.03125 3.890625 -3.03125 C 3.742188 -3.03125 3.582031 -3.039062 3.40625 -3.0625 L 3.40625 0 L 1.28125 0 Z M 3.90625 -9.3125 C 3.738281 -9.3125 3.570312 -9.304688 3.40625 -9.296875 L 3.40625 -4.890625 C 3.582031 -4.867188 3.796875 -4.859375 4.046875 -4.859375 C 4.304688 -4.859375 4.578125 -4.910156 4.859375 -5.015625 C 5.140625 -5.128906 5.375 -5.285156 5.5625 -5.484375 C 5.957031 -5.890625 6.15625 -6.421875 6.15625 -7.078125 C 6.15625 -8.566406 5.40625 -9.3125 3.90625 -9.3125 Z M 3.90625 -9.3125 "/></g></g></g><g fill="#52cc8a" fill-opacity="1"><g transform="translate(197.016004, 280.676672)"><g><path d="M 2.25 0.0625 C 1.769531 0.0195312 1.207031 0 0.5625 0 L -0.09375 0 L 3.546875 -10.1875 C 3.703125 -10.644531 3.78125 -10.910156 3.78125 -10.984375 C 3.78125 -11.054688 3.78125 -11.101562 3.78125 -11.125 L 3.78125 -11.140625 C 4.144531 -11.117188 4.53125 -11.109375 4.9375 -11.109375 C 5.269531 -11.109375 5.671875 -11.113281 6.140625 -11.125 L 6.15625 -11.109375 C 6.132812 -11.085938 6.125 -11.054688 6.125 -11.015625 C 6.125 -10.910156 6.207031 -10.628906 6.375 -10.171875 L 10.09375 0.03125 C 9.976562 0.0195312 9.847656 0.015625 9.703125 0.015625 C 9.703125 0.015625 9.554688 0.0078125 9.265625 0 C 9.128906 0 9.003906 0 8.890625 0 L 7.59375 0 L 6.8125 -2.40625 L 3.03125 -2.40625 Z M 6.15625 -4.40625 L 4.890625 -8.296875 L 3.671875 -4.40625 Z M 6.15625 -4.40625 "/></g></g></g><g fill="#52cc8a" fill-opacity="1"><g transform="translate(209.41301, 280.676672)"><g><path d="M 8.140625 -10.5 L 7.984375 -8.03125 L 7.921875 -8.015625 C 7.515625 -8.640625 6.816406 -9.039062 5.828125 -9.21875 C 5.515625 -9.28125 5.210938 -9.3125 4.921875 -9.3125 C 4.640625 -9.3125 4.394531 -9.285156 4.1875 -9.234375 C 3.988281 -9.191406 3.816406 -9.117188 3.671875 -9.015625 C 3.359375 -8.816406 3.203125 -8.554688 3.203125 -8.234375 C 3.203125 -7.816406 3.335938 -7.5 3.609375 -7.28125 C 3.941406 -7.03125 4.492188 -6.851562 5.265625 -6.75 C 6.046875 -6.644531 6.671875 -6.503906 7.140625 -6.328125 C 7.609375 -6.148438 7.988281 -5.921875 8.28125 -5.640625 C 8.851562 -5.128906 9.140625 -4.40625 9.140625 -3.46875 C 9.140625 -2.25 8.675781 -1.304688 7.75 -0.640625 C 6.957031 -0.078125 5.960938 0.203125 4.765625 0.203125 C 3.796875 0.203125 2.835938 0.0195312 1.890625 -0.34375 C 1.578125 -0.46875 1.300781 -0.609375 1.0625 -0.765625 L 1.15625 -3.5625 L 1.1875 -3.578125 C 1.882812 -2.390625 3.019531 -1.796875 4.59375 -1.796875 C 5.71875 -1.796875 6.457031 -2.066406 6.8125 -2.609375 C 6.9375 -2.785156 7 -2.988281 7 -3.21875 C 7 -3.445312 6.960938 -3.632812 6.890625 -3.78125 C 6.816406 -3.925781 6.695312 -4.050781 6.53125 -4.15625 C 6.207031 -4.375 5.664062 -4.515625 4.90625 -4.578125 C 4.144531 -4.648438 3.519531 -4.785156 3.03125 -4.984375 C 2.550781 -5.191406 2.164062 -5.441406 1.875 -5.734375 C 1.351562 -6.273438 1.09375 -7.023438 1.09375 -7.984375 C 1.09375 -8.972656 1.4375 -9.773438 2.125 -10.390625 C 2.832031 -11.003906 3.785156 -11.3125 4.984375 -11.3125 C 6.191406 -11.3125 7.242188 -11.039062 8.140625 -10.5 Z M 8.140625 -10.5 "/></g></g></g><g fill="#52cc8a" fill-opacity="1"><g transform="translate(221.776599, 280.676672)"><g><path d="M 8.140625 -10.5 L 7.984375 -8.03125 L 7.921875 -8.015625 C 7.515625 -8.640625 6.816406 -9.039062 5.828125 -9.21875 C 5.515625 -9.28125 5.210938 -9.3125 4.921875 -9.3125 C 4.640625 -9.3125 4.394531 -9.285156 4.1875 -9.234375 C 3.988281 -9.191406 3.816406 -9.117188 3.671875 -9.015625 C 3.359375 -8.816406 3.203125 -8.554688 3.203125 -8.234375 C 3.203125 -7.816406 3.335938 -7.5 3.609375 -7.28125 C 3.941406 -7.03125 4.492188 -6.851562 5.265625 -6.75 C 6.046875 -6.644531 6.671875 -6.503906 7.140625 -6.328125 C 7.609375 -6.148438 7.988281 -5.921875 8.28125 -5.640625 C 8.851562 -5.128906 9.140625 -4.40625 9.140625 -3.46875 C 9.140625 -2.25 8.675781 -1.304688 7.75 -0.640625 C 6.957031 -0.078125 5.960938 0.203125 4.765625 0.203125 C 3.796875 0.203125 2.835938 0.0195312 1.890625 -0.34375 C 1.578125 -0.46875 1.300781 -0.609375 1.0625 -0.765625 L 1.15625 -3.5625 L 1.1875 -3.578125 C 1.882812 -2.390625 3.019531 -1.796875 4.59375 -1.796875 C 5.71875 -1.796875 6.457031 -2.066406 6.8125 -2.609375 C 6.9375 -2.785156 7 -2.988281 7 -3.21875 C 7 -3.445312 6.960938 -3.632812 6.890625 -3.78125 C 6.816406 -3.925781 6.695312 -4.050781 6.53125 -4.15625 C 6.207031 -4.375 5.664062 -4.515625 4.90625 -4.578125 C 4.144531 -4.648438 3.519531 -4.785156 3.03125 -4.984375 C 2.550781 -5.191406 2.164062 -5.441406 1.875 -5.734375 C 1.351562 -6.273438 1.09375 -7.023438 1.09375 -7.984375 C 1.09375 -8.972656 1.4375 -9.773438 2.125 -10.390625 C 2.832031 -11.003906 3.785156 -11.3125 4.984375 -11.3125 C 6.191406 -11.3125 7.242188 -11.039062 8.140625 -10.5 Z M 8.140625 -10.5 "/></g></g></g><g clip-path="url(#5b61a017f6)"><path fill="#000000" d="M 273.351562 165.089844 C 273.351562 143.207031 265 121.324219 248.308594 104.632812 C 231.613281 87.9375 209.730469 79.589844 187.851562 79.589844 C 165.96875 79.589844 144.085938 87.9375 127.394531 104.632812 C 110.699219 121.324219 102.351562 143.207031 102.351562 165.089844 C 102.351562 186.96875 110.699219 208.851562 127.394531 225.546875 C 144.085938 242.238281 165.96875 250.589844 187.851562 250.589844 C 209.730469 250.589844 231.613281 242.238281 248.308594 225.546875 C 265 208.851562 273.351562 186.96875 273.351562 165.089844 Z M 187.851562 245.089844 C 167.378906 245.089844 146.898438 237.28125 131.277344 221.660156 C 115.65625 206.039062 107.847656 185.5625 107.847656 165.089844 C 107.847656 144.617188 115.65625 124.136719 131.277344 108.515625 C 146.898438 92.898438 167.378906 85.085938 187.851562 85.085938 C 208.324219 85.085938 228.800781 92.898438 244.421875 108.515625 C 260.042969 124.136719 267.851562 144.617188 267.851562 165.089844 C 267.851562 185.5625 260.042969 206.039062 244.421875 221.660156 C 228.800781 237.28125 208.324219 245.089844 187.851562 245.089844 Z M 260.074219 163.648438 C 260.085938 163.566406 260.125 163.5 260.125 163.417969 C 260.125 163.3125 260.074219 163.222656 260.0625 163.125 C 260.046875 162.066406 260.023438 160.996094 259.964844 159.894531 L 259.835938 158.394531 C 259.835938 158.230469 259.820312 158.078125 259.789062 157.921875 L 259.636719 156.441406 C 259.175781 152.957031 258.597656 149.808594 257.703125 146.402344 C 257.671875 146.25 257.636719 146.09375 257.578125 145.949219 C 256.972656 143.761719 256.296875 141.679688 255.511719 139.546875 C 254.570312 137.328125 253.761719 135.246094 252.699219 133.058594 C 249.363281 126.984375 246.773438 122.652344 242.167969 117.359375 L 241.714844 116.871094 C 241.605469 116.722656 241.480469 116.578125 241.339844 116.457031 C 240.5625 115.605469 239.78125 114.792969 238.976562 113.960938 C 226.359375 102.296875 212.410156 94.578125 194.984375 93.144531 C 193.320312 92.980469 191.632812 92.949219 189.945312 92.898438 C 189.800781 92.871094 189.667969 92.8125 189.515625 92.8125 C 189.421875 92.8125 189.347656 92.855469 189.257812 92.863281 C 188.785156 92.855469 188.324219 92.792969 187.855469 92.792969 L 187.855469 92.78125 C 185.570312 92.78125 183.238281 92.898438 180.859375 93.128906 C 180.699219 93.128906 180.539062 93.144531 180.382812 93.175781 C 175.066406 93.730469 168.84375 94.976562 163.855469 96.871094 L 163.851562 96.863281 C 161.054688 97.859375 158.492188 98.96875 155.816406 100.25 C 154.753906 100.792969 153.578125 101.367188 152.546875 101.972656 C 149.683594 103.574219 146.921875 105.375 144.289062 107.367188 C 141.636719 109.371094 139.109375 111.570312 136.726562 113.949219 C 135.457031 115.21875 134.203125 116.574219 132.96875 118.015625 C 131.753906 119.425781 130.609375 120.867188 129.535156 122.328125 L 129.507812 122.363281 C 129.042969 123 128.53125 123.726562 127.96875 124.558594 C 127.390625 125.414062 126.898438 126.164062 126.492188 126.8125 L 126.472656 126.84375 C 125.542969 128.335938 124.660156 129.871094 123.835938 131.445312 C 123.03125 132.976562 122.261719 134.582031 121.535156 136.25 L 120.847656 137.878906 L 120.183594 139.589844 C 119.894531 140.367188 119.605469 141.175781 119.324219 142.003906 C 119.039062 142.859375 118.773438 143.695312 118.53125 144.507812 C 118.445312 144.816406 118.15625 145.964844 118.050781 146.1875 C 117.75 147.316406 117.46875 148.449219 117.222656 149.578125 C 116.984375 150.671875 116.761719 151.816406 116.5625 152.996094 L 116.554688 153.050781 C 116.363281 154.203125 116.199219 155.328125 116.070312 156.421875 C 115.933594 157.554688 115.820312 158.710938 115.738281 159.882812 C 115.683594 161.066406 115.59375 162.21875 115.578125 163.410156 L 115.566406 163.410156 C 115.601562 164.464844 115.609375 165.484375 115.625 166.515625 C 115.617188 166.597656 115.578125 166.664062 115.578125 166.746094 C 115.578125 166.851562 115.625 166.941406 115.636719 167.039062 C 115.652344 168.097656 115.675781 169.167969 115.738281 170.269531 L 115.867188 171.769531 C 115.867188 171.933594 115.882812 172.085938 115.914062 172.242188 L 116.070312 173.722656 C 116.53125 177.195312 117.101562 180.371094 118.003906 183.765625 C 118.035156 183.917969 118.074219 184.070312 118.128906 184.214844 C 118.734375 186.402344 119.410156 188.484375 120.199219 190.617188 C 121.132812 192.835938 121.945312 194.917969 123.011719 197.105469 C 126.34375 203.179688 128.9375 207.511719 133.539062 212.804688 L 133.988281 213.292969 C 134.101562 213.441406 134.222656 213.585938 134.367188 213.707031 L 135.433594 214.863281 L 136.730469 216.199219 C 144.402344 223.292969 150.726562 228.007812 160.429688 231.976562 L 160.425781 231.984375 C 166.953125 234.644531 173.613281 236.28125 180.617188 237.003906 C 182.476562 237.1875 184.296875 237.28125 186.097656 237.328125 C 186.128906 237.328125 186.15625 237.34375 186.1875 237.34375 C 186.210938 237.34375 186.234375 237.332031 186.253906 237.332031 C 186.785156 237.34375 187.324219 237.375 187.851562 237.375 C 190.136719 237.375 192.480469 237.257812 194.867188 237.027344 C 195.019531 237.027344 195.167969 237.011719 195.320312 236.984375 C 204.121094 236.070312 211.917969 233.730469 219.886719 229.910156 C 220.945312 229.371094 222.132812 228.792969 223.15625 228.1875 C 226.019531 226.585938 228.789062 224.785156 231.421875 222.792969 C 234.070312 220.789062 236.597656 218.59375 238.984375 216.207031 C 240.253906 214.9375 241.503906 213.585938 242.742188 212.144531 C 243.953125 210.734375 245.101562 209.292969 246.171875 207.828125 L 246.199219 207.796875 C 246.664062 207.160156 247.179688 206.433594 247.738281 205.601562 C 248.320312 204.746094 248.8125 203.996094 249.21875 203.34375 L 249.234375 203.316406 C 250.167969 201.824219 251.046875 200.289062 251.871094 198.714844 C 252.675781 197.183594 253.445312 195.578125 254.171875 193.910156 L 254.859375 192.28125 L 255.523438 190.570312 C 255.8125 189.792969 256.105469 188.984375 256.382812 188.15625 C 256.667969 187.300781 256.933594 186.464844 257.175781 185.652344 C 257.261719 185.34375 257.554688 184.195312 257.65625 183.972656 C 257.960938 182.84375 258.238281 181.710938 258.484375 180.582031 C 258.726562 179.488281 258.949219 178.34375 259.144531 177.164062 L 259.152344 177.109375 C 259.34375 175.957031 259.507812 174.832031 259.640625 173.738281 C 259.777344 172.605469 259.886719 171.449219 259.96875 170.277344 C 260.023438 169.09375 260.113281 167.941406 260.132812 166.75 L 260.140625 166.75 C 260.101562 165.699219 260.089844 164.679688 260.074219 163.648438 Z M 254.601562 168.085938 C 254.585938 168.195312 254.578125 168.308594 254.582031 168.421875 L 254.480469 170.039062 C 254.40625 171.042969 254.304688 172.066406 254.179688 173.101562 C 254.058594 174.125 253.914062 175.125 253.753906 176.089844 L 253.695312 176.453125 C 253.527344 177.414062 253.335938 178.410156 253.109375 179.425781 C 252.886719 180.429688 252.644531 181.4375 252.382812 182.417969 C 252.234375 182.984375 252.082031 183.554688 251.90625 184.113281 C 251.671875 184.90625 251.429688 185.679688 251.175781 186.425781 C 250.945312 187.109375 250.695312 187.808594 250.433594 188.523438 C 250.371094 188.648438 250.324219 188.78125 250.285156 188.914062 L 249.765625 190.226562 L 249.21875 191.542969 C 249.144531 191.679688 249.085938 191.820312 249.039062 191.964844 C 248.433594 193.335938 247.761719 194.738281 247.011719 196.160156 C 246.28125 197.546875 245.488281 198.929688 244.640625 200.300781 L 244.460938 200.59375 C 243.988281 201.339844 243.570312 201.988281 243.203125 202.53125 C 242.820312 203.09375 242.375 203.730469 241.851562 204.441406 L 241.632812 204.738281 C 240.660156 206.054688 239.640625 207.339844 238.574219 208.578125 C 237.515625 209.808594 236.355469 211.058594 235.09375 212.320312 C 232.863281 214.550781 230.523438 216.582031 228.109375 218.410156 C 225.640625 220.277344 223.089844 221.945312 220.484375 223.402344 C 219.464844 223.929688 218.492188 224.472656 217.457031 224.992188 C 209.9375 228.59375 202.855469 230.6875 194.542969 231.554688 C 192.722656 231.738281 190.828125 231.800781 188.921875 231.828125 L 188.921875 215.652344 C 188.921875 214.140625 187.695312 212.917969 186.1875 212.917969 C 184.679688 212.917969 183.449219 214.144531 183.449219 215.652344 L 183.449219 231.667969 C 182.695312 231.621094 181.898438 231.628906 181.15625 231.554688 C 174.5625 230.824219 168.664062 229.414062 162.488281 226.902344 L 162.480469 226.910156 C 149.898438 221.5625 139.828125 213.460938 132.164062 202.011719 C 132.101562 201.890625 132.023438 201.777344 131.9375 201.664062 C 130.179688 198.96875 128.675781 196.261719 127.304688 193.351562 C 127.257812 193.230469 127.199219 193.117188 127.136719 193.003906 C 125.378906 189.140625 124.015625 185.253906 122.992188 181.140625 C 122.972656 181.015625 122.941406 180.898438 122.902344 180.777344 C 122.433594 178.695312 122.058594 176.761719 121.734375 174.652344 L 121.527344 173.078125 L 121.347656 171.480469 L 121.21875 169.875 C 121.210938 169.738281 121.210938 169.613281 121.203125 169.472656 L 137.28125 169.472656 C 138.789062 169.472656 140.015625 168.246094 140.015625 166.738281 C 140.015625 165.226562 138.789062 164.003906 137.28125 164.003906 L 121.058594 164.003906 C 121.0625 163.800781 121.058594 163.605469 121.070312 163.402344 L 121.0625 163.402344 L 121.109375 162.078125 C 121.121094 161.96875 121.128906 161.851562 121.125 161.738281 L 121.226562 160.121094 C 121.300781 159.117188 121.402344 158.09375 121.527344 157.058594 C 121.652344 156.035156 121.792969 155.035156 121.957031 154.066406 L 122.015625 153.703125 C 122.183594 152.742188 122.375 151.746094 122.601562 150.722656 C 122.824219 149.71875 123.0625 148.71875 123.328125 147.730469 C 123.472656 147.167969 123.625 146.59375 123.800781 146.039062 C 124.035156 145.242188 124.28125 144.46875 124.53125 143.726562 C 124.765625 143.042969 125.011719 142.339844 125.277344 141.628906 C 125.335938 141.503906 125.382812 141.371094 125.421875 141.234375 L 125.945312 139.921875 L 126.492188 138.605469 C 126.5625 138.46875 126.625 138.324219 126.671875 138.175781 C 127.273438 136.804688 127.949219 135.402344 128.695312 133.984375 C 129.421875 132.597656 130.21875 131.214844 131.070312 129.839844 L 131.25 129.550781 C 131.71875 128.800781 132.136719 128.152344 132.507812 127.609375 C 132.886719 127.050781 133.335938 126.414062 133.855469 125.703125 L 134.074219 125.402344 C 135.050781 124.085938 136.066406 122.804688 137.136719 121.566406 C 138.191406 120.332031 139.355469 119.085938 140.617188 117.824219 C 142.847656 115.59375 145.183594 113.5625 147.601562 111.730469 C 150.066406 109.863281 152.621094 108.195312 155.222656 106.738281 C 156.246094 106.214844 157.214844 105.671875 158.25 105.148438 C 165.714844 101.574219 172.84375 99.453125 181.078125 98.59375 L 181.152344 98.585938 C 182.976562 98.402344 184.875 98.34375 186.785156 98.3125 L 186.785156 114.484375 C 186.785156 116 188.011719 117.222656 189.523438 117.222656 C 191.03125 117.222656 192.257812 115.996094 192.257812 114.484375 L 192.257812 98.46875 C 192.988281 98.515625 193.714844 98.5 194.445312 98.574219 C 215.054688 101.234375 231.804688 110.59375 243.542969 128.125 C 243.609375 128.246094 243.6875 128.363281 243.769531 128.472656 C 245.527344 131.171875 247.03125 133.875 248.40625 136.789062 C 248.453125 136.90625 248.507812 137.023438 248.570312 137.132812 C 250.457031 141.28125 251.65625 145 252.808594 149.359375 C 253.277344 151.4375 253.65625 153.378906 253.980469 155.488281 L 254.183594 157.058594 L 254.363281 158.660156 L 254.492188 160.261719 C 254.5 160.398438 254.5 160.527344 254.511719 160.660156 L 238.433594 160.660156 C 236.917969 160.660156 235.695312 161.886719 235.695312 163.394531 C 235.695312 164.910156 236.921875 166.132812 238.433594 166.132812 L 254.65625 166.132812 C 254.652344 166.332031 254.65625 166.527344 254.644531 166.730469 L 254.652344 166.730469 Z M 187.851562 250.589844 Z M 222.265625 127.101562 L 172.078125 147.742188 C 171.730469 147.871094 171.398438 148.074219 171.117188 148.355469 C 170.835938 148.636719 170.640625 148.96875 170.503906 149.316406 L 149.863281 199.503906 C 149.597656 200.148438 149.574219 200.890625 149.863281 201.585938 C 150.433594 202.980469 152.039062 203.648438 153.4375 203.074219 L 203.625 182.433594 C 203.972656 182.300781 204.300781 182.097656 204.582031 181.820312 C 204.863281 181.542969 205.0625 181.214844 205.195312 180.863281 L 225.835938 130.675781 C 226.101562 130.027344 226.125 129.285156 225.835938 128.59375 C 225.261719 127.195312 223.660156 126.527344 222.265625 127.101562 Z M 174.027344 155.152344 L 178.175781 159.300781 C 177.109375 161.082031 176.539062 163.078125 176.539062 165.089844 C 176.539062 167.984375 177.644531 170.875 179.851562 173.082031 C 182.058594 175.289062 184.957031 176.394531 187.847656 176.394531 C 189.855469 176.394531 191.851562 175.828125 193.632812 174.757812 L 197.785156 178.910156 L 157.425781 195.507812 Z M 187.851562 159.273438 C 189.335938 159.273438 190.824219 159.84375 191.957031 160.976562 C 193.089844 162.109375 193.660156 163.597656 193.660156 165.085938 C 193.660156 166.570312 193.089844 168.058594 191.957031 169.191406 C 190.824219 170.324219 189.332031 170.894531 187.851562 170.894531 C 186.363281 170.894531 184.875 170.324219 183.742188 169.191406 C 182.609375 168.058594 182.039062 166.566406 182.039062 165.085938 C 182.039062 163.597656 182.609375 162.109375 183.742188 160.976562 C 184.875 159.84375 186.363281 159.273438 187.851562 159.273438 Z M 201.671875 175.023438 L 197.519531 170.871094 C 198.585938 169.089844 199.15625 167.09375 199.15625 165.085938 C 199.15625 162.191406 198.050781 159.296875 195.84375 157.089844 C 193.636719 154.882812 190.738281 153.777344 187.851562 153.777344 C 185.839844 153.777344 183.84375 154.34375 182.0625 155.414062 L 177.914062 151.265625 L 218.273438 134.667969 Z M 201.671875 175.023438 " fill-opacity="1" fill-rule="nonzero"/></g><g clip-path="url(#a238666a7f)"><path fill="#52cc8a" d="M 273.546875 165.152344 C 273.546875 143.257812 265.191406 121.355469 248.484375 104.648438 C 231.78125 87.945312 209.878906 79.589844 187.984375 79.589844 C 166.085938 79.589844 144.1875 87.945312 127.480469 104.648438 C 110.773438 121.355469 102.417969 143.257812 102.417969 165.152344 C 102.417969 187.046875 110.773438 208.949219 127.480469 225.65625 C 144.1875 242.363281 166.085938 250.71875 187.984375 250.71875 C 209.878906 250.71875 231.78125 242.363281 248.484375 225.65625 C 265.191406 208.949219 273.546875 187.046875 273.546875 165.152344 Z M 187.984375 245.214844 C 167.496094 245.214844 147.003906 237.398438 131.371094 221.765625 C 115.738281 206.132812 107.921875 185.640625 107.921875 165.152344 C 107.921875 144.664062 115.738281 124.171875 131.371094 108.539062 C 147.003906 92.90625 167.496094 85.089844 187.984375 85.089844 C 208.472656 85.089844 228.964844 92.90625 244.597656 108.539062 C 260.230469 124.171875 268.046875 144.664062 268.046875 165.152344 C 268.046875 185.640625 260.230469 206.132812 244.597656 221.765625 C 228.964844 237.398438 208.472656 245.214844 187.984375 245.214844 Z M 260.265625 163.710938 C 260.273438 163.628906 260.3125 163.5625 260.3125 163.480469 C 260.3125 163.378906 260.265625 163.289062 260.25 163.1875 C 260.234375 162.128906 260.210938 161.058594 260.152344 159.953125 L 260.023438 158.453125 C 260.023438 158.289062 260.007812 158.136719 259.976562 157.984375 L 259.824219 156.496094 C 259.359375 153.011719 258.785156 149.863281 257.890625 146.453125 C 257.859375 146.296875 257.820312 146.144531 257.765625 146 C 257.15625 143.808594 256.480469 141.726562 255.695312 139.589844 C 254.753906 137.371094 253.945312 135.285156 252.878906 133.101562 C 249.542969 127.019531 246.949219 122.683594 242.34375 117.386719 L 241.890625 116.898438 C 241.777344 116.75 241.652344 116.609375 241.511719 116.484375 C 240.734375 115.632812 239.957031 114.820312 239.148438 113.984375 C 226.523438 102.3125 212.5625 94.585938 195.125 93.15625 C 193.460938 92.992188 191.769531 92.957031 190.078125 92.90625 C 189.933594 92.878906 189.800781 92.820312 189.652344 92.820312 C 189.558594 92.820312 189.480469 92.863281 189.390625 92.871094 C 188.921875 92.863281 188.457031 92.804688 187.988281 92.804688 L 187.988281 92.789062 C 185.703125 92.789062 183.367188 92.90625 180.988281 93.136719 C 180.824219 93.136719 180.667969 93.15625 180.507812 93.183594 C 175.191406 93.742188 168.960938 94.988281 163.96875 96.886719 L 163.964844 96.875 C 161.167969 97.875 158.605469 98.980469 155.925781 100.265625 C 154.863281 100.808594 153.683594 101.382812 152.652344 101.988281 C 149.789062 103.59375 147.023438 105.394531 144.386719 107.386719 C 141.734375 109.394531 139.207031 111.59375 136.820312 113.976562 C 135.550781 115.246094 134.296875 116.605469 133.058594 118.046875 C 131.84375 119.457031 130.699219 120.898438 129.625 122.363281 L 129.597656 122.394531 C 129.132812 123.035156 128.617188 123.761719 128.058594 124.589844 C 127.476562 125.445312 126.984375 126.199219 126.578125 126.851562 L 126.5625 126.878906 C 125.628906 128.371094 124.746094 129.910156 123.921875 131.484375 C 123.117188 133.015625 122.347656 134.625 121.621094 136.292969 L 120.929688 137.921875 L 120.269531 139.632812 C 119.976562 140.410156 119.6875 141.21875 119.40625 142.050781 C 119.121094 142.90625 118.855469 143.746094 118.613281 144.558594 C 118.527344 144.867188 118.234375 146.015625 118.132812 146.238281 C 117.828125 147.367188 117.550781 148.503906 117.304688 149.632812 C 117.0625 150.726562 116.839844 151.867188 116.644531 153.050781 L 116.636719 153.105469 C 116.441406 154.261719 116.28125 155.386719 116.148438 156.480469 C 116.011719 157.613281 115.898438 158.769531 115.820312 159.941406 C 115.761719 161.128906 115.671875 162.28125 115.65625 163.472656 L 115.648438 163.472656 C 115.679688 164.527344 115.691406 165.550781 115.703125 166.582031 C 115.695312 166.664062 115.65625 166.730469 115.65625 166.8125 C 115.65625 166.914062 115.703125 167.003906 115.714844 167.105469 C 115.734375 168.164062 115.753906 169.234375 115.820312 170.339844 L 115.945312 171.839844 C 115.945312 172.003906 115.964844 172.15625 115.992188 172.308594 L 116.148438 173.792969 C 116.609375 177.269531 117.183594 180.449219 118.085938 183.84375 C 118.117188 184 118.152344 184.148438 118.210938 184.292969 C 118.816406 186.484375 119.492188 188.566406 120.28125 190.703125 C 121.21875 192.921875 122.03125 195.007812 123.09375 197.191406 C 126.433594 203.273438 129.023438 207.609375 133.632812 212.90625 L 134.082031 213.394531 C 134.191406 213.542969 134.316406 213.683594 134.457031 213.808594 L 135.527344 214.964844 L 136.824219 216.304688 C 144.503906 223.402344 150.832031 228.121094 160.542969 232.089844 L 160.539062 232.097656 C 167.070312 234.757812 173.738281 236.398438 180.746094 237.121094 C 182.605469 237.304688 184.429688 237.398438 186.230469 237.445312 C 186.257812 237.445312 186.289062 237.464844 186.320312 237.464844 C 186.34375 237.464844 186.367188 237.449219 186.386719 237.449219 C 186.917969 237.464844 187.457031 237.492188 187.984375 237.492188 C 190.273438 237.492188 192.617188 237.378906 195.003906 237.148438 C 195.15625 237.148438 195.308594 237.128906 195.457031 237.105469 C 204.265625 236.1875 212.070312 233.847656 220.042969 230.023438 C 221.105469 229.484375 222.289062 228.90625 223.316406 228.300781 C 226.183594 226.695312 228.953125 224.894531 231.585938 222.898438 C 234.238281 220.894531 236.769531 218.699219 239.15625 216.3125 C 240.425781 215.042969 241.679688 213.683594 242.914062 212.242188 C 244.128906 210.832031 245.277344 209.390625 246.351562 207.925781 L 246.375 207.890625 C 246.84375 207.253906 247.355469 206.527344 247.917969 205.699219 C 248.5 204.84375 248.992188 204.089844 249.398438 203.4375 L 249.414062 203.410156 C 250.347656 201.914062 251.226562 200.378906 252.054688 198.804688 C 252.859375 197.273438 253.628906 195.664062 254.355469 193.996094 L 255.042969 192.367188 L 255.707031 190.65625 C 256 189.875 256.289062 189.066406 256.566406 188.238281 C 256.855469 187.382812 257.121094 186.542969 257.363281 185.730469 C 257.449219 185.421875 257.738281 184.273438 257.84375 184.050781 C 258.144531 182.921875 258.425781 181.785156 258.671875 180.65625 C 258.910156 179.5625 259.132812 178.417969 259.332031 177.238281 L 259.339844 177.183594 C 259.53125 176.027344 259.695312 174.902344 259.828125 173.808594 C 259.964844 172.675781 260.074219 171.519531 260.15625 170.347656 C 260.210938 169.160156 260.300781 168.007812 260.320312 166.816406 L 260.328125 166.816406 C 260.289062 165.765625 260.277344 164.742188 260.265625 163.710938 Z M 254.785156 168.152344 C 254.769531 168.261719 254.761719 168.375 254.765625 168.488281 L 254.664062 170.105469 C 254.589844 171.113281 254.488281 172.136719 254.363281 173.171875 C 254.242188 174.195312 254.097656 175.199219 253.9375 176.160156 L 253.875 176.523438 C 253.710938 177.488281 253.515625 178.484375 253.289062 179.503906 C 253.066406 180.507812 252.828125 181.511719 252.5625 182.496094 C 252.417969 183.0625 252.265625 183.636719 252.089844 184.191406 C 251.851562 184.988281 251.609375 185.761719 251.355469 186.503906 C 251.125 187.191406 250.878906 187.890625 250.613281 188.605469 C 250.550781 188.730469 250.503906 188.863281 250.46875 188.996094 L 249.945312 190.308594 L 249.398438 191.625 C 249.324219 191.761719 249.265625 191.90625 249.21875 192.050781 C 248.613281 193.421875 247.9375 194.828125 247.191406 196.246094 C 246.457031 197.636719 245.667969 199.019531 244.816406 200.394531 L 244.636719 200.683594 C 244.164062 201.433594 243.746094 202.082031 243.378906 202.625 C 242.996094 203.1875 242.546875 203.824219 242.027344 204.535156 L 241.808594 204.832031 C 240.832031 206.152344 239.8125 207.433594 238.746094 208.675781 C 237.6875 209.90625 236.523438 211.15625 235.261719 212.417969 C 233.027344 214.652344 230.6875 216.683594 228.269531 218.515625 C 225.804688 220.382812 223.25 222.054688 220.644531 223.511719 C 219.621094 224.039062 218.648438 224.582031 217.613281 225.105469 C 210.089844 228.707031 203 230.800781 194.683594 231.671875 C 192.859375 231.855469 190.964844 231.914062 189.058594 231.945312 L 189.058594 215.753906 C 189.058594 214.242188 187.828125 213.019531 186.320312 213.019531 C 184.808594 213.019531 183.582031 214.246094 183.582031 215.753906 L 183.582031 231.78125 C 182.824219 231.734375 182.027344 231.742188 181.285156 231.671875 C 174.6875 230.9375 168.78125 229.527344 162.601562 227.011719 L 162.597656 227.019531 C 150 221.667969 139.925781 213.5625 132.253906 202.105469 C 132.191406 201.984375 132.113281 201.867188 132.027344 201.757812 C 130.269531 199.058594 128.765625 196.351562 127.390625 193.4375 C 127.34375 193.316406 127.289062 193.199219 127.222656 193.089844 C 125.464844 189.222656 124.101562 185.332031 123.078125 181.21875 C 123.058594 181.09375 123.027344 180.972656 122.988281 180.855469 C 122.519531 178.769531 122.140625 176.835938 121.816406 174.722656 L 121.609375 173.148438 L 121.429688 171.546875 L 121.304688 169.945312 C 121.292969 169.808594 121.292969 169.679688 121.285156 169.542969 L 137.375 169.542969 C 138.886719 169.542969 140.113281 168.316406 140.113281 166.804688 C 140.113281 165.289062 138.886719 164.066406 137.375 164.066406 L 121.140625 164.066406 C 121.144531 163.863281 121.140625 163.667969 121.152344 163.46875 L 121.144531 163.46875 L 121.191406 162.140625 C 121.203125 162.03125 121.214844 161.914062 121.207031 161.796875 L 121.3125 160.179688 C 121.382812 159.175781 121.488281 158.152344 121.609375 157.117188 C 121.734375 156.089844 121.875 155.089844 122.039062 154.125 L 122.097656 153.761719 C 122.265625 152.796875 122.457031 151.800781 122.683594 150.777344 C 122.90625 149.773438 123.148438 148.773438 123.414062 147.785156 C 123.558594 147.21875 123.710938 146.644531 123.886719 146.089844 C 124.121094 145.292969 124.367188 144.519531 124.617188 143.773438 C 124.851562 143.089844 125.097656 142.386719 125.363281 141.675781 C 125.421875 141.550781 125.46875 141.417969 125.507812 141.28125 L 126.03125 139.96875 L 126.578125 138.648438 C 126.652344 138.511719 126.710938 138.367188 126.757812 138.222656 C 127.359375 136.847656 128.035156 135.445312 128.785156 134.023438 C 129.511719 132.636719 130.308594 131.253906 131.160156 129.878906 L 131.339844 129.589844 C 131.808594 128.839844 132.230469 128.1875 132.597656 127.644531 C 132.976562 127.085938 133.425781 126.449219 133.949219 125.738281 L 134.167969 125.4375 C 135.144531 124.121094 136.160156 122.835938 137.230469 121.597656 C 138.289062 120.363281 139.453125 119.113281 140.714844 117.851562 C 142.945312 115.621094 145.285156 113.585938 147.703125 111.757812 C 150.171875 109.886719 152.726562 108.21875 155.332031 106.757812 C 156.355469 106.234375 157.324219 105.691406 158.359375 105.167969 C 165.832031 101.589844 172.96875 99.46875 181.207031 98.609375 L 181.28125 98.601562 C 183.105469 98.417969 185.003906 98.355469 186.917969 98.328125 L 186.917969 114.511719 C 186.917969 116.027344 188.144531 117.25 189.65625 117.25 C 191.167969 117.25 192.394531 116.023438 192.394531 114.511719 L 192.394531 98.480469 C 193.125 98.527344 193.851562 98.515625 194.585938 98.589844 C 215.210938 101.25 231.972656 110.617188 243.71875 128.164062 C 243.785156 128.28125 243.859375 128.398438 243.945312 128.511719 C 245.707031 131.210938 247.210938 133.917969 248.585938 136.832031 C 248.632812 136.949219 248.6875 137.066406 248.75 137.175781 C 250.636719 141.328125 251.835938 145.050781 252.992188 149.414062 C 253.460938 151.492188 253.839844 153.433594 254.164062 155.542969 L 254.367188 157.117188 L 254.546875 158.71875 L 254.675781 160.324219 C 254.683594 160.460938 254.683594 160.589844 254.695312 160.71875 L 238.601562 160.71875 C 237.089844 160.71875 235.867188 161.949219 235.867188 163.457031 C 235.867188 164.972656 237.09375 166.195312 238.601562 166.195312 L 254.839844 166.195312 C 254.835938 166.398438 254.839844 166.59375 254.828125 166.796875 L 254.835938 166.796875 Z M 187.984375 250.71875 Z M 222.421875 127.136719 L 172.199219 147.792969 C 171.851562 147.925781 171.519531 148.125 171.238281 148.40625 C 170.957031 148.691406 170.757812 149.019531 170.621094 149.371094 L 149.96875 199.59375 C 149.703125 200.238281 149.679688 200.984375 149.96875 201.675781 C 150.539062 203.074219 152.144531 203.742188 153.542969 203.167969 L 203.769531 182.507812 C 204.117188 182.378906 204.445312 182.175781 204.726562 181.898438 C 205.011719 181.621094 205.207031 181.289062 205.339844 180.941406 L 226 130.714844 C 226.265625 130.066406 226.285156 129.324219 226 128.628906 C 225.421875 127.230469 223.820312 126.5625 222.421875 127.136719 Z M 174.152344 155.210938 L 178.300781 159.359375 C 177.238281 161.144531 176.664062 163.140625 176.664062 165.152344 C 176.664062 168.050781 177.769531 170.945312 179.980469 173.152344 C 182.1875 175.359375 185.085938 176.46875 187.980469 176.46875 C 189.988281 176.46875 191.988281 175.898438 193.773438 174.832031 L 197.925781 178.984375 L 157.535156 195.597656 Z M 187.984375 159.335938 C 189.472656 159.335938 190.960938 159.902344 192.09375 161.039062 C 193.230469 162.171875 193.796875 163.660156 193.796875 165.148438 C 193.796875 166.636719 193.230469 168.125 192.09375 169.261719 C 190.960938 170.394531 189.46875 170.960938 187.984375 170.960938 C 186.496094 170.960938 185.003906 170.394531 183.871094 169.261719 C 182.738281 168.125 182.167969 166.632812 182.167969 165.148438 C 182.167969 163.660156 182.738281 162.171875 183.871094 161.039062 C 185.003906 159.902344 186.496094 159.335938 187.984375 159.335938 Z M 201.816406 175.09375 L 197.660156 170.941406 C 198.726562 169.15625 199.300781 167.160156 199.300781 165.148438 C 199.300781 162.253906 198.191406 159.355469 195.984375 157.148438 C 193.777344 154.941406 190.875 153.832031 187.984375 153.832031 C 185.972656 153.832031 183.976562 154.402344 182.191406 155.472656 L 178.039062 151.320312 L 218.429688 134.710938 Z M 201.816406 175.09375 " fill-opacity="1" fill-rule="nonzero"/></g><g clip-path="url(#56cceda078)"><path fill="#000000" d="M 273.386719 165.054688 C 273.386719 143.175781 265.035156 121.289062 248.34375 104.597656 C 231.648438 87.902344 209.765625 79.554688 187.886719 79.554688 C 166.003906 79.554688 144.121094 87.902344 127.429688 104.597656 C 110.734375 121.289062 102.386719 143.175781 102.386719 165.054688 C 102.386719 186.933594 110.734375 208.816406 127.429688 225.511719 C 144.121094 242.203125 166.003906 250.554688 187.886719 250.554688 C 209.765625 250.554688 231.648438 242.203125 248.34375 225.511719 C 265.035156 208.816406 273.386719 186.933594 273.386719 165.054688 Z M 187.886719 245.054688 C 167.410156 245.054688 146.933594 237.246094 131.3125 221.625 C 115.691406 206.003906 107.882812 185.527344 107.882812 165.054688 C 107.882812 144.582031 115.691406 124.105469 131.3125 108.484375 C 146.933594 92.863281 167.410156 85.050781 187.886719 85.050781 C 208.359375 85.050781 228.835938 92.863281 244.457031 108.484375 C 260.078125 124.105469 267.886719 144.582031 267.886719 165.054688 C 267.886719 185.527344 260.078125 206.003906 244.457031 221.625 C 228.835938 237.246094 208.359375 245.054688 187.886719 245.054688 Z M 260.109375 163.613281 C 260.121094 163.53125 260.15625 163.464844 260.15625 163.382812 C 260.15625 163.28125 260.109375 163.191406 260.097656 163.089844 C 260.082031 162.03125 260.058594 160.960938 260 159.859375 L 259.871094 158.359375 C 259.871094 158.195312 259.855469 158.042969 259.824219 157.890625 L 259.671875 156.40625 C 259.210938 152.921875 258.632812 149.773438 257.738281 146.367188 C 257.707031 146.214844 257.671875 146.058594 257.613281 145.914062 C 257.007812 143.726562 256.332031 141.644531 255.546875 139.511719 C 254.605469 137.292969 253.796875 135.210938 252.734375 133.027344 C 249.398438 126.949219 246.808594 122.617188 242.203125 117.324219 L 241.75 116.835938 C 241.640625 116.6875 241.515625 116.546875 241.375 116.421875 C 240.597656 115.570312 239.816406 114.757812 239.007812 113.925781 C 226.394531 102.261719 212.445312 94.542969 195.019531 93.109375 C 193.355469 92.949219 191.667969 92.914062 189.980469 92.863281 C 189.835938 92.835938 189.703125 92.777344 189.550781 92.777344 C 189.457031 92.777344 189.382812 92.820312 189.292969 92.828125 C 188.820312 92.820312 188.359375 92.757812 187.890625 92.757812 L 187.890625 92.746094 C 185.605469 92.746094 183.273438 92.863281 180.894531 93.09375 C 180.734375 93.09375 180.574219 93.109375 180.417969 93.140625 C 175.101562 93.695312 168.878906 94.945312 163.890625 96.835938 L 163.886719 96.828125 C 161.089844 97.824219 158.527344 98.933594 155.851562 100.214844 C 154.789062 100.757812 153.613281 101.332031 152.582031 101.9375 C 149.71875 103.539062 146.957031 105.339844 144.324219 107.332031 C 141.671875 109.335938 139.144531 111.535156 136.761719 113.917969 C 135.492188 115.1875 134.238281 116.542969 133.003906 117.980469 C 131.789062 119.394531 130.644531 120.832031 129.570312 122.296875 L 129.542969 122.328125 C 129.078125 122.964844 128.566406 123.691406 128.003906 124.523438 C 127.421875 125.378906 126.933594 126.128906 126.527344 126.78125 L 126.507812 126.808594 C 125.578125 128.300781 124.695312 129.835938 123.871094 131.410156 C 123.066406 132.941406 122.296875 134.546875 121.570312 136.214844 L 120.882812 137.84375 L 120.21875 139.554688 C 119.929688 140.332031 119.640625 141.140625 119.359375 141.96875 C 119.074219 142.824219 118.808594 143.660156 118.566406 144.472656 C 118.480469 144.78125 118.191406 145.933594 118.085938 146.152344 C 117.785156 147.28125 117.503906 148.414062 117.257812 149.542969 C 117.019531 150.636719 116.796875 151.78125 116.597656 152.960938 L 116.589844 153.015625 C 116.398438 154.167969 116.234375 155.292969 116.105469 156.386719 C 115.964844 157.519531 115.855469 158.675781 115.773438 159.847656 C 115.71875 161.03125 115.628906 162.183594 115.613281 163.375 L 115.601562 163.375 C 115.636719 164.429688 115.644531 165.453125 115.660156 166.480469 C 115.648438 166.5625 115.613281 166.632812 115.613281 166.710938 C 115.613281 166.816406 115.660156 166.90625 115.671875 167.003906 C 115.6875 168.0625 115.710938 169.132812 115.773438 170.234375 L 115.902344 171.734375 C 115.902344 171.898438 115.917969 172.050781 115.949219 172.207031 L 116.101562 173.6875 C 116.566406 177.160156 117.136719 180.335938 118.039062 183.730469 C 118.070312 183.886719 118.109375 184.035156 118.164062 184.179688 C 118.769531 186.367188 119.445312 188.449219 120.234375 190.585938 C 121.167969 192.804688 121.980469 194.886719 123.046875 197.070312 C 126.378906 203.144531 128.972656 207.480469 133.574219 212.769531 L 134.023438 213.257812 C 134.136719 213.410156 134.257812 213.550781 134.402344 213.671875 L 135.46875 214.828125 L 136.765625 216.164062 C 144.4375 223.257812 150.761719 227.972656 160.464844 231.941406 L 160.460938 231.949219 C 166.988281 234.609375 173.648438 236.246094 180.652344 236.96875 C 182.511719 237.152344 184.332031 237.246094 186.132812 237.292969 C 186.164062 237.292969 186.191406 237.308594 186.222656 237.308594 C 186.246094 237.308594 186.269531 237.296875 186.289062 237.296875 C 186.820312 237.308594 187.359375 237.339844 187.886719 237.339844 C 190.171875 237.339844 192.515625 237.222656 194.898438 236.992188 C 195.054688 236.992188 195.203125 236.976562 195.351562 236.949219 C 204.15625 236.035156 211.953125 233.699219 219.921875 229.875 C 220.980469 229.335938 222.167969 228.761719 223.191406 228.152344 C 226.054688 226.550781 228.824219 224.75 231.457031 222.757812 C 234.105469 220.753906 236.632812 218.558594 239.019531 216.175781 C 240.289062 214.90625 241.539062 213.550781 242.777344 212.109375 C 243.988281 210.699219 245.136719 209.257812 246.207031 207.796875 L 246.234375 207.761719 C 246.699219 207.125 247.214844 206.398438 247.773438 205.566406 C 248.355469 204.714844 248.847656 203.960938 249.253906 203.3125 L 249.269531 203.28125 C 250.203125 201.789062 251.082031 200.253906 251.90625 198.679688 C 252.710938 197.152344 253.480469 195.542969 254.207031 193.875 L 254.894531 192.246094 L 255.558594 190.539062 C 255.847656 189.757812 256.140625 188.953125 256.417969 188.121094 C 256.703125 187.265625 256.96875 186.429688 257.210938 185.617188 C 257.296875 185.308594 257.589844 184.160156 257.691406 183.9375 C 257.996094 182.808594 258.273438 181.675781 258.519531 180.546875 C 258.761719 179.453125 258.984375 178.3125 259.179688 177.128906 L 259.1875 177.074219 C 259.378906 175.921875 259.542969 174.796875 259.675781 173.703125 C 259.8125 172.570312 259.921875 171.414062 260.003906 170.242188 C 260.058594 169.058594 260.148438 167.90625 260.167969 166.71875 L 260.175781 166.71875 C 260.136719 165.664062 260.125 164.644531 260.109375 163.613281 Z M 254.636719 168.050781 C 254.621094 168.160156 254.613281 168.273438 254.617188 168.386719 L 254.515625 170.003906 C 254.441406 171.007812 254.339844 172.03125 254.214844 173.066406 C 254.09375 174.089844 253.949219 175.089844 253.789062 176.054688 L 253.730469 176.417969 C 253.5625 177.378906 253.371094 178.375 253.144531 179.390625 C 252.921875 180.398438 252.679688 181.402344 252.417969 182.386719 C 252.269531 182.949219 252.117188 183.523438 251.941406 184.078125 C 251.707031 184.871094 251.460938 185.648438 251.210938 186.390625 C 250.980469 187.074219 250.730469 187.777344 250.464844 188.488281 C 250.40625 188.613281 250.359375 188.746094 250.320312 188.878906 L 249.800781 190.191406 L 249.253906 191.507812 C 249.179688 191.644531 249.121094 191.785156 249.074219 191.929688 C 248.46875 193.304688 247.792969 194.707031 247.046875 196.125 C 246.316406 197.515625 245.523438 198.894531 244.675781 200.265625 L 244.496094 200.558594 C 244.023438 201.304688 243.605469 201.957031 243.238281 202.5 C 242.855469 203.058594 242.410156 203.695312 241.886719 204.40625 L 241.667969 204.703125 C 240.695312 206.019531 239.675781 207.304688 238.609375 208.542969 C 237.550781 209.773438 236.390625 211.023438 235.128906 212.285156 C 232.894531 214.515625 230.558594 216.546875 228.144531 218.375 C 225.675781 220.246094 223.125 221.910156 220.519531 223.371094 C 219.5 223.894531 218.527344 224.4375 217.492188 224.960938 C 209.972656 228.558594 202.890625 230.652344 194.578125 231.523438 C 192.757812 231.707031 190.863281 231.765625 188.957031 231.796875 L 188.957031 215.617188 C 188.957031 214.105469 187.730469 212.882812 186.222656 212.882812 C 184.714844 212.882812 183.484375 214.109375 183.484375 215.617188 L 183.484375 231.632812 C 182.730469 231.585938 181.933594 231.59375 181.191406 231.523438 C 174.597656 230.789062 168.699219 229.378906 162.519531 226.867188 L 162.515625 226.875 C 149.929688 221.527344 139.863281 213.425781 132.199219 201.976562 C 132.136719 201.855469 132.058594 201.742188 131.972656 201.628906 C 130.214844 198.933594 128.710938 196.226562 127.339844 193.316406 C 127.292969 193.195312 127.234375 193.082031 127.171875 192.96875 C 125.414062 189.105469 124.050781 185.21875 123.027344 181.105469 C 123.007812 180.984375 122.976562 180.863281 122.9375 180.742188 C 122.46875 178.660156 122.09375 176.730469 121.769531 174.617188 L 121.5625 173.042969 L 121.382812 171.445312 L 121.253906 169.84375 C 121.246094 169.707031 121.246094 169.578125 121.238281 169.441406 L 137.316406 169.441406 C 138.824219 169.441406 140.050781 168.214844 140.050781 166.703125 C 140.050781 165.191406 138.824219 163.96875 137.316406 163.96875 L 121.09375 163.96875 C 121.097656 163.765625 121.09375 163.570312 121.105469 163.371094 L 121.097656 163.371094 L 121.144531 162.042969 C 121.15625 161.933594 121.164062 161.816406 121.160156 161.703125 L 121.261719 160.085938 C 121.335938 159.082031 121.4375 158.058594 121.5625 157.027344 C 121.6875 156 121.828125 155 121.988281 154.03125 L 122.050781 153.667969 C 122.214844 152.707031 122.410156 151.710938 122.636719 150.691406 C 122.859375 149.683594 123.097656 148.683594 123.363281 147.699219 C 123.507812 147.132812 123.660156 146.558594 123.835938 146.003906 C 124.070312 145.210938 124.316406 144.4375 124.566406 143.691406 C 124.800781 143.007812 125.046875 142.308594 125.3125 141.59375 C 125.371094 141.46875 125.417969 141.335938 125.457031 141.199219 L 125.980469 139.886719 L 126.527344 138.570312 C 126.597656 138.433594 126.660156 138.289062 126.707031 138.144531 C 127.308594 136.769531 127.984375 135.367188 128.730469 133.949219 C 129.457031 132.5625 130.253906 131.179688 131.105469 129.804688 L 131.285156 129.515625 C 131.753906 128.769531 132.171875 128.117188 132.539062 127.574219 C 132.921875 127.015625 133.371094 126.378906 133.890625 125.667969 L 134.109375 125.367188 C 135.085938 124.050781 136.101562 122.769531 137.171875 121.53125 C 138.226562 120.300781 139.390625 119.050781 140.652344 117.789062 C 142.882812 115.558594 145.21875 113.527344 147.636719 111.699219 C 150.101562 109.828125 152.65625 108.164062 155.257812 106.703125 C 156.28125 106.179688 157.25 105.636719 158.285156 105.113281 C 165.75 101.539062 172.878906 99.417969 181.113281 98.5625 L 181.1875 98.550781 C 183.011719 98.367188 184.910156 98.308594 186.820312 98.277344 L 186.820312 114.449219 C 186.820312 115.964844 188.046875 117.1875 189.554688 117.1875 C 191.066406 117.1875 192.292969 115.960938 192.292969 114.449219 L 192.292969 98.433594 C 193.023438 98.480469 193.75 98.464844 194.480469 98.539062 C 215.089844 101.199219 231.839844 110.558594 243.578125 128.09375 C 243.644531 128.210938 243.722656 128.328125 243.804688 128.4375 C 245.5625 131.136719 247.066406 133.84375 248.441406 136.753906 C 248.488281 136.875 248.542969 136.988281 248.605469 137.101562 C 250.492188 141.246094 251.6875 144.964844 252.84375 149.328125 C 253.3125 151.402344 253.691406 153.34375 254.015625 155.453125 L 254.21875 157.027344 L 254.398438 158.625 L 254.527344 160.226562 C 254.535156 160.363281 254.535156 160.492188 254.546875 160.625 L 238.46875 160.625 C 236.953125 160.625 235.730469 161.851562 235.730469 163.359375 C 235.730469 164.875 236.957031 166.097656 238.46875 166.097656 L 254.691406 166.097656 C 254.6875 166.296875 254.691406 166.496094 254.675781 166.695312 L 254.6875 166.695312 Z M 187.886719 250.554688 Z M 222.296875 127.066406 L 172.113281 147.707031 C 171.765625 147.839844 171.433594 148.039062 171.152344 148.320312 C 170.871094 148.605469 170.675781 148.933594 170.535156 149.285156 L 149.898438 199.46875 C 149.632812 200.113281 149.609375 200.855469 149.898438 201.550781 C 150.46875 202.949219 152.074219 203.613281 153.472656 203.042969 L 203.660156 182.398438 C 204.007812 182.265625 204.335938 182.0625 204.617188 181.785156 C 204.898438 181.507812 205.097656 181.179688 205.230469 180.828125 L 225.871094 130.640625 C 226.136719 129.996094 226.160156 129.25 225.871094 128.558594 C 225.296875 127.160156 223.695312 126.492188 222.296875 127.066406 Z M 174.0625 155.117188 L 178.210938 159.265625 C 177.144531 161.046875 176.574219 163.042969 176.574219 165.054688 C 176.574219 167.949219 177.679688 170.84375 179.886719 173.046875 C 182.09375 175.253906 184.992188 176.359375 187.878906 176.359375 C 189.890625 176.359375 191.886719 175.792969 193.667969 174.722656 L 197.820312 178.875 L 157.460938 195.476562 Z M 187.886719 159.238281 C 189.371094 159.238281 190.859375 159.808594 191.992188 160.941406 C 193.125 162.074219 193.695312 163.5625 193.695312 165.050781 C 193.695312 166.539062 193.125 168.023438 191.992188 169.15625 C 190.859375 170.289062 189.367188 170.859375 187.886719 170.859375 C 186.398438 170.859375 184.910156 170.289062 183.777344 169.15625 C 182.644531 168.023438 182.074219 166.53125 182.074219 165.050781 C 182.074219 163.5625 182.644531 162.074219 183.777344 160.941406 C 184.910156 159.808594 186.398438 159.238281 187.886719 159.238281 Z M 201.707031 174.988281 L 197.554688 170.839844 C 198.621094 169.054688 199.191406 167.058594 199.191406 165.050781 C 199.191406 162.15625 198.085938 159.261719 195.878906 157.054688 C 193.671875 154.847656 190.773438 153.742188 187.886719 153.742188 C 185.875 153.742188 183.878906 154.3125 182.097656 155.378906 L 177.949219 151.234375 L 218.308594 134.632812 Z M 201.707031 174.988281 " fill-opacity="1" fill-rule="nonzero"/></g><g fill="#000000" fill-opacity="1"><g transform="translate(56.3991, 304.142529)"><g><path d="M 4.921875 -8.6875 C 5.722656 -8.6875 6.40625 -8.546875 6.96875 -8.265625 L 6.96875 -6.3125 L 6.953125 -6.296875 C 6.710938 -6.660156 6.207031 -6.90625 5.4375 -7.03125 C 5.207031 -7.0625 4.921875 -7.078125 4.578125 -7.078125 C 4.234375 -7.078125 3.894531 -7.007812 3.5625 -6.875 C 3.226562 -6.75 2.957031 -6.566406 2.75 -6.328125 C 2.332031 -5.867188 2.125 -5.207031 2.125 -4.34375 C 2.125 -3.332031 2.382812 -2.582031 2.90625 -2.09375 C 3.34375 -1.6875 3.921875 -1.484375 4.640625 -1.484375 C 5.453125 -1.484375 6.109375 -1.65625 6.609375 -2 C 6.796875 -2.125 6.953125 -2.28125 7.078125 -2.46875 L 7.09375 -2.453125 L 7.09375 -0.65625 C 6.445312 -0.113281 5.566406 0.15625 4.453125 0.15625 C 3.148438 0.15625 2.128906 -0.253906 1.390625 -1.078125 C 0.679688 -1.867188 0.328125 -2.914062 0.328125 -4.21875 C 0.328125 -5.601562 0.71875 -6.691406 1.5 -7.484375 C 2.28125 -8.285156 3.421875 -8.6875 4.921875 -8.6875 Z M 4.921875 -8.6875 "/></g></g></g><g fill="#000000" fill-opacity="1"><g transform="translate(65.842886, 304.142529)"><g><path d="M 1.796875 -1 C 1.410156 -1.375 1.101562 -1.820312 0.875 -2.34375 C 0.65625 -2.875 0.546875 -3.445312 0.546875 -4.0625 C 0.546875 -4.6875 0.648438 -5.273438 0.859375 -5.828125 C 1.066406 -6.390625 1.363281 -6.878906 1.75 -7.296875 C 2.144531 -7.722656 2.617188 -8.0625 3.171875 -8.3125 C 3.722656 -8.5625 4.335938 -8.6875 5.015625 -8.6875 C 6.191406 -8.6875 7.1875 -8.3125 8 -7.5625 C 8.863281 -6.769531 9.296875 -5.695312 9.296875 -4.34375 C 9.296875 -3.039062 8.847656 -1.957031 7.953125 -1.09375 C 7.410156 -0.550781 6.757812 -0.179688 6 0.015625 C 5.632812 0.109375 5.203125 0.15625 4.703125 0.15625 C 4.203125 0.15625 3.691406 0.0546875 3.171875 -0.140625 C 2.648438 -0.347656 2.191406 -0.632812 1.796875 -1 Z M 2.328125 -4.15625 C 2.328125 -3.757812 2.390625 -3.394531 2.515625 -3.0625 C 2.648438 -2.726562 2.835938 -2.441406 3.078125 -2.203125 C 3.578125 -1.691406 4.21875 -1.4375 5 -1.4375 C 5.75 -1.4375 6.351562 -1.679688 6.8125 -2.171875 C 7.269531 -2.671875 7.5 -3.347656 7.5 -4.203125 C 7.5 -5.015625 7.28125 -5.691406 6.84375 -6.234375 C 6.363281 -6.816406 5.710938 -7.109375 4.890625 -7.109375 C 4.085938 -7.109375 3.453125 -6.816406 2.984375 -6.234375 C 2.546875 -5.679688 2.328125 -4.988281 2.328125 -4.15625 Z M 2.328125 -4.15625 "/></g></g></g><g fill="#000000" fill-opacity="1"><g transform="translate(77.508508, 304.142529)"><g><path d="M 1.15625 0 C 1.1875 -0.144531 1.203125 -0.300781 1.203125 -0.46875 L 1.203125 -8.53125 L 2.484375 -8.53125 L 5.875 -3.171875 L 5.875 -8.09375 C 5.875 -8.320312 5.851562 -8.46875 5.8125 -8.53125 L 7.546875 -8.53125 C 7.523438 -8.351562 7.515625 -8.160156 7.515625 -7.953125 L 7.515625 0 L 6.171875 0 L 2.828125 -5.140625 L 2.828125 0 Z M 1.15625 0 "/></g></g></g><g fill="#000000" fill-opacity="1"><g transform="translate(88.047207, 304.142529)"><g><path d="M 4.171875 0.03125 C 3.972656 0.0078125 3.445312 0 2.59375 0 L 2.390625 0 L 2.390625 -7.09375 L 1.125 -7.09375 C 0.75 -7.09375 0.523438 -7.070312 0.453125 -7.03125 C 0.390625 -6.988281 0.335938 -6.953125 0.296875 -6.921875 L 0.28125 -6.9375 L 0.28125 -8.578125 L 0.296875 -8.59375 C 0.429688 -8.550781 0.8125 -8.53125 1.4375 -8.53125 L 5.453125 -8.53125 C 5.828125 -8.53125 6.046875 -8.546875 6.109375 -8.578125 C 6.179688 -8.617188 6.238281 -8.65625 6.28125 -8.6875 L 6.296875 -8.671875 L 6.296875 -7.03125 L 6.28125 -7.015625 C 6.132812 -7.066406 5.753906 -7.09375 5.140625 -7.09375 L 4.171875 -7.09375 Z M 4.171875 0.03125 "/></g></g></g><g fill="#000000" fill-opacity="1"><g transform="translate(96.453713, 304.142529)"><g><path d="M 5.390625 -1.53125 C 5.648438 -1.53125 5.832031 -1.554688 5.9375 -1.609375 L 5.96875 -1.609375 L 5.90625 0 L 1.109375 0 L 1.109375 -8.5625 C 1.222656 -8.5625 1.347656 -8.554688 1.484375 -8.546875 L 1.9375 -8.53125 C 2.238281 -8.53125 2.5625 -8.53125 2.90625 -8.53125 C 3.882812 -8.53125 4.851562 -8.546875 5.8125 -8.578125 C 5.769531 -8.203125 5.75 -7.695312 5.75 -7.0625 C 5.75 -7 5.75 -6.953125 5.75 -6.921875 L 5.75 -6.890625 C 5.519531 -6.953125 5.203125 -6.984375 4.796875 -6.984375 L 2.78125 -6.984375 L 2.78125 -5.359375 L 4.296875 -5.359375 C 4.765625 -5.359375 5.046875 -5.367188 5.140625 -5.390625 L 5.15625 -3.8125 C 4.945312 -3.832031 4.679688 -3.84375 4.359375 -3.84375 L 2.78125 -3.84375 L 2.78125 -1.53125 Z M 5.390625 -1.53125 "/></g></g></g><g fill="#000000" fill-opacity="1"><g transform="translate(104.860219, 304.142529)"><g><path d="M 1.15625 0 C 1.1875 -0.144531 1.203125 -0.300781 1.203125 -0.46875 L 1.203125 -8.53125 L 2.484375 -8.53125 L 5.875 -3.171875 L 5.875 -8.09375 C 5.875 -8.320312 5.851562 -8.46875 5.8125 -8.53125 L 7.546875 -8.53125 C 7.523438 -8.351562 7.515625 -8.160156 7.515625 -7.953125 L 7.515625 0 L 6.171875 0 L 2.828125 -5.140625 L 2.828125 0 Z M 1.15625 0 "/></g></g></g><g fill="#000000" fill-opacity="1"><g transform="translate(115.398917, 304.142529)"><g><path d="M 4.171875 0.03125 C 3.972656 0.0078125 3.445312 0 2.59375 0 L 2.390625 0 L 2.390625 -7.09375 L 1.125 -7.09375 C 0.75 -7.09375 0.523438 -7.070312 0.453125 -7.03125 C 0.390625 -6.988281 0.335938 -6.953125 0.296875 -6.921875 L 0.28125 -6.9375 L 0.28125 -8.578125 L 0.296875 -8.59375 C 0.429688 -8.550781 0.8125 -8.53125 1.4375 -8.53125 L 5.453125 -8.53125 C 5.828125 -8.53125 6.046875 -8.546875 6.109375 -8.578125 C 6.179688 -8.617188 6.238281 -8.65625 6.28125 -8.6875 L 6.296875 -8.671875 L 6.296875 -7.03125 L 6.28125 -7.015625 C 6.132812 -7.066406 5.753906 -7.09375 5.140625 -7.09375 L 4.171875 -7.09375 Z M 4.171875 0.03125 "/></g></g></g><g fill="#000000" fill-opacity="1"><g transform="translate(123.80542, 304.142529)"><g/></g></g><g fill="#000000" fill-opacity="1"><g transform="translate(129.990099, 304.142529)"><g><path d="M 1.796875 -1 C 1.410156 -1.375 1.101562 -1.820312 0.875 -2.34375 C 0.65625 -2.875 0.546875 -3.445312 0.546875 -4.0625 C 0.546875 -4.6875 0.648438 -5.273438 0.859375 -5.828125 C 1.066406 -6.390625 1.363281 -6.878906 1.75 -7.296875 C 2.144531 -7.722656 2.617188 -8.0625 3.171875 -8.3125 C 3.722656 -8.5625 4.335938 -8.6875 5.015625 -8.6875 C 6.191406 -8.6875 7.1875 -8.3125 8 -7.5625 C 8.863281 -6.769531 9.296875 -5.695312 9.296875 -4.34375 C 9.296875 -3.039062 8.847656 -1.957031 7.953125 -1.09375 C 7.410156 -0.550781 6.757812 -0.179688 6 0.015625 C 5.632812 0.109375 5.203125 0.15625 4.703125 0.15625 C 4.203125 0.15625 3.691406 0.0546875 3.171875 -0.140625 C 2.648438 -0.347656 2.191406 -0.632812 1.796875 -1 Z M 2.328125 -4.15625 C 2.328125 -3.757812 2.390625 -3.394531 2.515625 -3.0625 C 2.648438 -2.726562 2.835938 -2.441406 3.078125 -2.203125 C 3.578125 -1.691406 4.21875 -1.4375 5 -1.4375 C 5.75 -1.4375 6.351562 -1.679688 6.8125 -2.171875 C 7.269531 -2.671875 7.5 -3.347656 7.5 -4.203125 C 7.5 -5.015625 7.28125 -5.691406 6.84375 -6.234375 C 6.363281 -6.816406 5.710938 -7.109375 4.890625 -7.109375 C 4.085938 -7.109375 3.453125 -6.816406 2.984375 -6.234375 C 2.546875 -5.679688 2.328125 -4.988281 2.328125 -4.15625 Z M 2.328125 -4.15625 "/></g></g></g><g fill="#000000" fill-opacity="1"><g transform="translate(141.655719, 304.142529)"><g><path d="M 0.984375 -8.5625 C 1.578125 -8.644531 2.1875 -8.6875 2.8125 -8.6875 C 3.96875 -8.6875 4.847656 -8.410156 5.453125 -7.859375 C 6.054688 -7.316406 6.359375 -6.503906 6.359375 -5.421875 C 6.359375 -4.453125 6.03125 -3.6875 5.375 -3.125 C 4.75 -2.59375 3.953125 -2.328125 2.984375 -2.328125 C 2.867188 -2.328125 2.742188 -2.332031 2.609375 -2.34375 L 2.609375 0 L 0.984375 0 Z M 3 -7.140625 C 2.875 -7.140625 2.742188 -7.132812 2.609375 -7.125 L 2.609375 -3.75 C 2.742188 -3.738281 2.910156 -3.734375 3.109375 -3.734375 C 3.304688 -3.734375 3.507812 -3.773438 3.71875 -3.859375 C 3.9375 -3.941406 4.117188 -4.054688 4.265625 -4.203125 C 4.566406 -4.515625 4.71875 -4.925781 4.71875 -5.4375 C 4.71875 -6.570312 4.144531 -7.140625 3 -7.140625 Z M 3 -7.140625 "/></g></g></g><g fill="#000000" fill-opacity="1"><g transform="translate(150.062222, 304.142529)"><g><path d="M 4.171875 0.03125 C 3.972656 0.0078125 3.445312 0 2.59375 0 L 2.390625 0 L 2.390625 -7.09375 L 1.125 -7.09375 C 0.75 -7.09375 0.523438 -7.070312 0.453125 -7.03125 C 0.390625 -6.988281 0.335938 -6.953125 0.296875 -6.921875 L 0.28125 -6.9375 L 0.28125 -8.578125 L 0.296875 -8.59375 C 0.429688 -8.550781 0.8125 -8.53125 1.4375 -8.53125 L 5.453125 -8.53125 C 5.828125 -8.53125 6.046875 -8.546875 6.109375 -8.578125 C 6.179688 -8.617188 6.238281 -8.65625 6.28125 -8.6875 L 6.296875 -8.671875 L 6.296875 -7.03125 L 6.28125 -7.015625 C 6.132812 -7.066406 5.753906 -7.09375 5.140625 -7.09375 L 4.171875 -7.09375 Z M 4.171875 0.03125 "/></g></g></g><g fill="#000000" fill-opacity="1"><g transform="translate(158.468731, 304.142529)"><g><path d="M 1.296875 -8.546875 C 1.722656 -8.535156 1.984375 -8.53125 2.078125 -8.53125 L 2.53125 -8.53125 C 2.757812 -8.53125 2.941406 -8.546875 3.078125 -8.578125 L 3.078125 0 L 1.296875 0 Z M 1.296875 -8.546875 "/></g></g></g><g fill="#000000" fill-opacity="1"><g transform="translate(164.685424, 304.142529)"><g><path d="M 2.828125 0.03125 C 2.628906 0.0078125 2.234375 0 1.640625 0 L 1.140625 0 L 1.140625 -8.546875 C 1.410156 -8.535156 1.707031 -8.53125 2.03125 -8.53125 C 2.363281 -8.53125 2.597656 -8.546875 2.734375 -8.578125 L 4.890625 -4.921875 L 6.953125 -8.578125 C 7.097656 -8.546875 7.359375 -8.53125 7.734375 -8.53125 C 8.117188 -8.53125 8.453125 -8.535156 8.734375 -8.546875 L 8.734375 0 L 8.21875 0 C 7.632812 0 7.238281 0.0078125 7.03125 0.03125 L 7.03125 -5.703125 L 4.9375 -1.953125 L 2.828125 -5.40625 Z M 2.828125 0.03125 "/></g></g></g><g fill="#000000" fill-opacity="1"><g transform="translate(176.376662, 304.142529)"><g><path d="M 1.296875 -8.546875 C 1.722656 -8.535156 1.984375 -8.53125 2.078125 -8.53125 L 2.53125 -8.53125 C 2.757812 -8.53125 2.941406 -8.546875 3.078125 -8.578125 L 3.078125 0 L 1.296875 0 Z M 1.296875 -8.546875 "/></g></g></g><g fill="#000000" fill-opacity="1"><g transform="translate(182.593355, 304.142529)"><g><path d="M 0.921875 -7.953125 C 0.921875 -8.085938 0.910156 -8.28125 0.890625 -8.53125 L 6.96875 -8.53125 L 3.25 -1.53125 L 5.5625 -1.53125 C 6.175781 -1.53125 6.535156 -1.546875 6.640625 -1.578125 C 6.753906 -1.617188 6.84375 -1.65625 6.90625 -1.6875 L 6.90625 0.09375 C 6.71875 0.0820312 6.5625 0.0664062 6.4375 0.046875 C 6.320312 0.0351562 6.195312 0.0234375 6.0625 0.015625 C 5.863281 0.00390625 5.476562 0 4.90625 0 L 0.59375 0 L 4.453125 -6.984375 L 2.421875 -6.984375 C 1.585938 -6.984375 1.0625 -6.9375 0.84375 -6.84375 C 0.894531 -7.0625 0.921875 -7.363281 0.921875 -7.75 Z M 0.921875 -7.953125 "/></g></g></g><g fill="#000000" fill-opacity="1"><g transform="translate(192.043554, 304.142529)"><g><path d="M 1.71875 0.046875 C 1.351562 0.015625 0.925781 0 0.4375 0 L -0.078125 0 L 2.71875 -7.8125 C 2.84375 -8.164062 2.90625 -8.367188 2.90625 -8.421875 C 2.90625 -8.484375 2.898438 -8.519531 2.890625 -8.53125 L 2.90625 -8.546875 C 3.175781 -8.535156 3.46875 -8.53125 3.78125 -8.53125 C 4.039062 -8.53125 4.347656 -8.53125 4.703125 -8.53125 L 4.71875 -8.53125 C 4.707031 -8.507812 4.703125 -8.484375 4.703125 -8.453125 C 4.703125 -8.367188 4.765625 -8.15625 4.890625 -7.8125 L 7.734375 0.015625 C 7.648438 0.015625 7.550781 0.015625 7.4375 0.015625 C 7.4375 0.015625 7.328125 0.0078125 7.109375 0 C 7.003906 0 6.90625 0 6.8125 0 L 5.828125 0 L 5.21875 -1.84375 L 2.328125 -1.84375 Z M 4.71875 -3.390625 L 3.75 -6.359375 L 2.8125 -3.390625 Z M 4.71875 -3.390625 "/></g></g></g><g fill="#000000" fill-opacity="1"><g transform="translate(201.544976, 304.142529)"><g><path d="M 4.171875 0.03125 C 3.972656 0.0078125 3.445312 0 2.59375 0 L 2.390625 0 L 2.390625 -7.09375 L 1.125 -7.09375 C 0.75 -7.09375 0.523438 -7.070312 0.453125 -7.03125 C 0.390625 -6.988281 0.335938 -6.953125 0.296875 -6.921875 L 0.28125 -6.9375 L 0.28125 -8.578125 L 0.296875 -8.59375 C 0.429688 -8.550781 0.8125 -8.53125 1.4375 -8.53125 L 5.453125 -8.53125 C 5.828125 -8.53125 6.046875 -8.546875 6.109375 -8.578125 C 6.179688 -8.617188 6.238281 -8.65625 6.28125 -8.6875 L 6.296875 -8.671875 L 6.296875 -7.03125 L 6.28125 -7.015625 C 6.132812 -7.066406 5.753906 -7.09375 5.140625 -7.09375 L 4.171875 -7.09375 Z M 4.171875 0.03125 "/></g></g></g><g fill="#000000" fill-opacity="1"><g transform="translate(209.951485, 304.142529)"><g><path d="M 1.296875 -8.546875 C 1.722656 -8.535156 1.984375 -8.53125 2.078125 -8.53125 L 2.53125 -8.53125 C 2.757812 -8.53125 2.941406 -8.546875 3.078125 -8.578125 L 3.078125 0 L 1.296875 0 Z M 1.296875 -8.546875 "/></g></g></g><g fill="#000000" fill-opacity="1"><g transform="translate(216.168178, 304.142529)"><g><path d="M 1.796875 -1 C 1.410156 -1.375 1.101562 -1.820312 0.875 -2.34375 C 0.65625 -2.875 0.546875 -3.445312 0.546875 -4.0625 C 0.546875 -4.6875 0.648438 -5.273438 0.859375 -5.828125 C 1.066406 -6.390625 1.363281 -6.878906 1.75 -7.296875 C 2.144531 -7.722656 2.617188 -8.0625 3.171875 -8.3125 C 3.722656 -8.5625 4.335938 -8.6875 5.015625 -8.6875 C 6.191406 -8.6875 7.1875 -8.3125 8 -7.5625 C 8.863281 -6.769531 9.296875 -5.695312 9.296875 -4.34375 C 9.296875 -3.039062 8.847656 -1.957031 7.953125 -1.09375 C 7.410156 -0.550781 6.757812 -0.179688 6 0.015625 C 5.632812 0.109375 5.203125 0.15625 4.703125 0.15625 C 4.203125 0.15625 3.691406 0.0546875 3.171875 -0.140625 C 2.648438 -0.347656 2.191406 -0.632812 1.796875 -1 Z M 2.328125 -4.15625 C 2.328125 -3.757812 2.390625 -3.394531 2.515625 -3.0625 C 2.648438 -2.726562 2.835938 -2.441406 3.078125 -2.203125 C 3.578125 -1.691406 4.21875 -1.4375 5 -1.4375 C 5.75 -1.4375 6.351562 -1.679688 6.8125 -2.171875 C 7.269531 -2.671875 7.5 -3.347656 7.5 -4.203125 C 7.5 -5.015625 7.28125 -5.691406 6.84375 -6.234375 C 6.363281 -6.816406 5.710938 -7.109375 4.890625 -7.109375 C 4.085938 -7.109375 3.453125 -6.816406 2.984375 -6.234375 C 2.546875 -5.679688 2.328125 -4.988281 2.328125 -4.15625 Z M 2.328125 -4.15625 "/></g></g></g><g fill="#000000" fill-opacity="1"><g transform="translate(227.833804, 304.142529)"><g><path d="M 1.15625 0 C 1.1875 -0.144531 1.203125 -0.300781 1.203125 -0.46875 L 1.203125 -8.53125 L 2.484375 -8.53125 L 5.875 -3.171875 L 5.875 -8.09375 C 5.875 -8.320312 5.851562 -8.46875 5.8125 -8.53125 L 7.546875 -8.53125 C 7.523438 -8.351562 7.515625 -8.160156 7.515625 -7.953125 L 7.515625 0 L 6.171875 0 L 2.828125 -5.140625 L 2.828125 0 Z M 1.15625 0 "/></g></g></g><g fill="#000000" fill-opacity="1"><g transform="translate(238.372507, 304.142529)"><g/></g></g><g fill="#000000" fill-opacity="1"><g transform="translate(244.557192, 304.142529)"><g><path d="M 6.25 -8.046875 L 6.125 -6.171875 L 6.078125 -6.15625 C 5.765625 -6.625 5.226562 -6.929688 4.46875 -7.078125 C 4.226562 -7.117188 4 -7.140625 3.78125 -7.140625 C 3.5625 -7.140625 3.375 -7.117188 3.21875 -7.078125 C 3.0625 -7.046875 2.925781 -6.992188 2.8125 -6.921875 C 2.582031 -6.765625 2.46875 -6.5625 2.46875 -6.3125 C 2.46875 -5.988281 2.566406 -5.75 2.765625 -5.59375 C 3.023438 -5.394531 3.453125 -5.253906 4.046875 -5.171875 C 4.640625 -5.097656 5.113281 -4.988281 5.46875 -4.84375 C 5.832031 -4.707031 6.128906 -4.535156 6.359375 -4.328125 C 6.796875 -3.941406 7.015625 -3.390625 7.015625 -2.671875 C 7.015625 -1.722656 6.660156 -1 5.953125 -0.5 C 5.335938 -0.0625 4.570312 0.15625 3.65625 0.15625 C 2.90625 0.15625 2.171875 0.015625 1.453125 -0.265625 C 1.210938 -0.359375 1.003906 -0.46875 0.828125 -0.59375 L 0.890625 -2.734375 L 0.921875 -2.75 C 1.453125 -1.832031 2.320312 -1.375 3.53125 -1.375 C 4.382812 -1.375 4.953125 -1.582031 5.234375 -2 C 5.328125 -2.144531 5.375 -2.300781 5.375 -2.46875 C 5.375 -2.644531 5.34375 -2.785156 5.28125 -2.890625 C 5.226562 -3.003906 5.140625 -3.101562 5.015625 -3.1875 C 4.765625 -3.351562 4.347656 -3.460938 3.765625 -3.515625 C 3.179688 -3.578125 2.703125 -3.679688 2.328125 -3.828125 C 1.953125 -3.984375 1.65625 -4.175781 1.4375 -4.40625 C 1.03125 -4.8125 0.828125 -5.382812 0.828125 -6.125 C 0.828125 -6.882812 1.097656 -7.5 1.640625 -7.96875 C 2.179688 -8.445312 2.910156 -8.6875 3.828125 -8.6875 C 4.742188 -8.6875 5.550781 -8.472656 6.25 -8.046875 Z M 6.25 -8.046875 "/></g></g></g><g fill="#000000" fill-opacity="1"><g transform="translate(254.032991, 304.142529)"><g><path d="M 1.796875 -1 C 1.410156 -1.375 1.101562 -1.820312 0.875 -2.34375 C 0.65625 -2.875 0.546875 -3.445312 0.546875 -4.0625 C 0.546875 -4.6875 0.648438 -5.273438 0.859375 -5.828125 C 1.066406 -6.390625 1.363281 -6.878906 1.75 -7.296875 C 2.144531 -7.722656 2.617188 -8.0625 3.171875 -8.3125 C 3.722656 -8.5625 4.335938 -8.6875 5.015625 -8.6875 C 6.191406 -8.6875 7.1875 -8.3125 8 -7.5625 C 8.863281 -6.769531 9.296875 -5.695312 9.296875 -4.34375 C 9.296875 -3.039062 8.847656 -1.957031 7.953125 -1.09375 C 7.410156 -0.550781 6.757812 -0.179688 6 0.015625 C 5.632812 0.109375 5.203125 0.15625 4.703125 0.15625 C 4.203125 0.15625 3.691406 0.0546875 3.171875 -0.140625 C 2.648438 -0.347656 2.191406 -0.632812 1.796875 -1 Z M 2.328125 -4.15625 C 2.328125 -3.757812 2.390625 -3.394531 2.515625 -3.0625 C 2.648438 -2.726562 2.835938 -2.441406 3.078125 -2.203125 C 3.578125 -1.691406 4.21875 -1.4375 5 -1.4375 C 5.75 -1.4375 6.351562 -1.679688 6.8125 -2.171875 C 7.269531 -2.671875 7.5 -3.347656 7.5 -4.203125 C 7.5 -5.015625 7.28125 -5.691406 6.84375 -6.234375 C 6.363281 -6.816406 5.710938 -7.109375 4.890625 -7.109375 C 4.085938 -7.109375 3.453125 -6.816406 2.984375 -6.234375 C 2.546875 -5.679688 2.328125 -4.988281 2.328125 -4.15625 Z M 2.328125 -4.15625 "/></g></g></g><g fill="#000000" fill-opacity="1"><g transform="translate(265.698616, 304.142529)"><g><path d="M 2.359375 0 C 1.722656 0 1.304688 0.0078125 1.109375 0.03125 L 1.109375 -8.5625 C 1.203125 -8.539062 1.410156 -8.53125 1.734375 -8.53125 C 2.054688 -8.53125 2.429688 -8.535156 2.859375 -8.546875 L 2.859375 -1.53125 L 4.1875 -1.53125 C 4.570312 -1.53125 4.878906 -1.546875 5.109375 -1.578125 C 5.078125 -0.578125 5.0625 -0.0546875 5.0625 -0.015625 L 5.0625 0.046875 C 4.644531 0.015625 3.941406 0 2.953125 0 Z M 2.359375 0 "/></g></g></g><g fill="#000000" fill-opacity="1"><g transform="translate(273.010223, 304.142529)"><g><path d="M 5.953125 -8.5625 C 6.222656 -8.539062 6.445312 -8.53125 6.625 -8.53125 L 7.15625 -8.53125 C 7.332031 -8.53125 7.519531 -8.546875 7.71875 -8.578125 L 7.71875 -3.28125 C 7.71875 -2.226562 7.398438 -1.382812 6.765625 -0.75 C 6.160156 -0.144531 5.40625 0.15625 4.5 0.15625 C 3.5 0.15625 2.691406 -0.0976562 2.078125 -0.609375 C 1.390625 -1.191406 1.046875 -2.03125 1.046875 -3.125 L 1.046875 -8.5625 C 1.398438 -8.539062 1.734375 -8.53125 2.046875 -8.53125 C 2.359375 -8.53125 2.617188 -8.546875 2.828125 -8.578125 L 2.828125 -3.046875 C 2.828125 -2.503906 2.988281 -2.082031 3.3125 -1.78125 C 3.625 -1.507812 4.007812 -1.375 4.46875 -1.375 C 5.15625 -1.375 5.613281 -1.722656 5.84375 -2.421875 C 5.914062 -2.679688 5.953125 -2.992188 5.953125 -3.359375 Z M 5.953125 -8.5625 "/></g></g></g><g fill="#000000" fill-opacity="1"><g transform="translate(283.606536, 304.142529)"><g><path d="M 4.171875 0.03125 C 3.972656 0.0078125 3.445312 0 2.59375 0 L 2.390625 0 L 2.390625 -7.09375 L 1.125 -7.09375 C 0.75 -7.09375 0.523438 -7.070312 0.453125 -7.03125 C 0.390625 -6.988281 0.335938 -6.953125 0.296875 -6.921875 L 0.28125 -6.9375 L 0.28125 -8.578125 L 0.296875 -8.59375 C 0.429688 -8.550781 0.8125 -8.53125 1.4375 -8.53125 L 5.453125 -8.53125 C 5.828125 -8.53125 6.046875 -8.546875 6.109375 -8.578125 C 6.179688 -8.617188 6.238281 -8.65625 6.28125 -8.6875 L 6.296875 -8.671875 L 6.296875 -7.03125 L 6.28125 -7.015625 C 6.132812 -7.066406 5.753906 -7.09375 5.140625 -7.09375 L 4.171875 -7.09375 Z M 4.171875 0.03125 "/></g></g></g><g fill="#000000" fill-opacity="1"><g transform="translate(292.013045, 304.142529)"><g><path d="M 1.296875 -8.546875 C 1.722656 -8.535156 1.984375 -8.53125 2.078125 -8.53125 L 2.53125 -8.53125 C 2.757812 -8.53125 2.941406 -8.546875 3.078125 -8.578125 L 3.078125 0 L 1.296875 0 Z M 1.296875 -8.546875 "/></g></g></g><g fill="#000000" fill-opacity="1"><g transform="translate(298.229727, 304.142529)"><g><path d="M 1.796875 -1 C 1.410156 -1.375 1.101562 -1.820312 0.875 -2.34375 C 0.65625 -2.875 0.546875 -3.445312 0.546875 -4.0625 C 0.546875 -4.6875 0.648438 -5.273438 0.859375 -5.828125 C 1.066406 -6.390625 1.363281 -6.878906 1.75 -7.296875 C 2.144531 -7.722656 2.617188 -8.0625 3.171875 -8.3125 C 3.722656 -8.5625 4.335938 -8.6875 5.015625 -8.6875 C 6.191406 -8.6875 7.1875 -8.3125 8 -7.5625 C 8.863281 -6.769531 9.296875 -5.695312 9.296875 -4.34375 C 9.296875 -3.039062 8.847656 -1.957031 7.953125 -1.09375 C 7.410156 -0.550781 6.757812 -0.179688 6 0.015625 C 5.632812 0.109375 5.203125 0.15625 4.703125 0.15625 C 4.203125 0.15625 3.691406 0.0546875 3.171875 -0.140625 C 2.648438 -0.347656 2.191406 -0.632812 1.796875 -1 Z M 2.328125 -4.15625 C 2.328125 -3.757812 2.390625 -3.394531 2.515625 -3.0625 C 2.648438 -2.726562 2.835938 -2.441406 3.078125 -2.203125 C 3.578125 -1.691406 4.21875 -1.4375 5 -1.4375 C 5.75 -1.4375 6.351562 -1.679688 6.8125 -2.171875 C 7.269531 -2.671875 7.5 -3.347656 7.5 -4.203125 C 7.5 -5.015625 7.28125 -5.691406 6.84375 -6.234375 C 6.363281 -6.816406 5.710938 -7.109375 4.890625 -7.109375 C 4.085938 -7.109375 3.453125 -6.816406 2.984375 -6.234375 C 2.546875 -5.679688 2.328125 -4.988281 2.328125 -4.15625 Z M 2.328125 -4.15625 "/></g></g></g><g fill="#000000" fill-opacity="1"><g transform="translate(309.895353, 304.142529)"><g><path d="M 1.15625 0 C 1.1875 -0.144531 1.203125 -0.300781 1.203125 -0.46875 L 1.203125 -8.53125 L 2.484375 -8.53125 L 5.875 -3.171875 L 5.875 -8.09375 C 5.875 -8.320312 5.851562 -8.46875 5.8125 -8.53125 L 7.546875 -8.53125 C 7.523438 -8.351562 7.515625 -8.160156 7.515625 -7.953125 L 7.515625 0 L 6.171875 0 L 2.828125 -5.140625 L 2.828125 0 Z M 1.15625 0 "/></g></g></g></svg>